<?xml version="1.0" standalone="no"?>
  <!DOCTYPE svg PUBLIC "-//W3C//DTD SVG 1.1//EN" "http://www.w3.org/Graphics/SVG/1.1/DTD/svg11.dtd" >
  <svg>
  <metadata>
  Created by font-carrier
  </metadata>
  <defs>
  <font id="AbrilFatface-Regular" horiz-adv-x="1141" vert-adv-y="1141" >
    <font-face
      
      font-family="Abril Fatface"
      
      font-weight="400"
      
      font-stretch="normal"
      
      units-per-em="1000"
      
      ascent="1058"
      
      descent="-291"
      
    />
      <missing-glyph />

      

      
      <glyph glyph-name="uni21" unicode="&#x21;" d="M178 178L178 264Q178 350 145.50 468.50Q113 587 113 630Q113 673 136.50 692Q160 711 194 711Q270 711 270 630Q270 583 235 466Q200 349 200 263L200 178L178 178M185.50-10Q185.50-10 166.75-10Q148-10 129.50 11.50Q111 33 111 65.50Q111 98 131 119.50Q151 141 186 141Q221 141 242 122.50Q263 104 263 68Q263 32 243 11Q223-10 185.50-10Z"  horiz-adv-x="377" vert-adv-y="1000"  />

      
      <glyph glyph-name="uni22" unicode="&#x22;" d="M227 481L198 747Q238 767 263 767Q297 767 297 730Q297 707 288 664L248 481L227 481M79 481L50 747Q90 767 115 767Q149 767 149 730Q149 707 140 664L100 481L79 481Z"  horiz-adv-x="334" vert-adv-y="1000"  />

      
      <glyph glyph-name="uni23" unicode="&#x23;" d="M163 0L138 0L165 169L45 169L61 261L178 261L204 407L84 407L99 500L216 500L237 640L263 640L241 500L413 500L434 640L460 640L438 500L566 500L552 407L426 407L402 261L528 261L514 169L390 169L362 0L337 0L365 169L191 169L163 0M401 407L229 407L203 261L377 261L401 407Z"  horiz-adv-x="608" vert-adv-y="1000"  />

      
      <glyph glyph-name="uni24" unicode="&#x24;" d="M258 691L281 692Q302 692 320 689L320 770L348 770L348 685Q367 681 399 671.50Q431 662 445.50 662Q460 662 469 682L479 682L486 485L471 485Q408 606 348 646L348 440Q430 413 477.50 365Q525 317 525 224Q525 131 477.50 69.50Q430 8 348-6L348-71L320-71L320-9Q314-10 296.50-10Q279-10 258-7L258-71L230-71L230-4L111 19Q95 19 84-10L71-10L62 222L78 222Q140 87 230 35L230 260Q150 288 107.50 337.50Q65 387 65 471.50Q65 556 108.50 614Q152 672 230 687L230 770L258 770L258 691M312 11L320 11L320 230Q298 239 259 251L258 251L258 22Q285 11 312 11M258 467Q298 454 320 449L320 661Q295 672 278 672Q261 672 258 671L258 467M430 113Q430 180 348 219L348 15Q384 24 407 49Q430 74 430 113M155 573Q155 510 230 478L230 667Q196 657 175.50 632Q155 607 155 573Z"  horiz-adv-x="565" vert-adv-y="1000"  />

      
      <glyph glyph-name="uni25" unicode="&#x25;" d="M566.50-10Q566.50-10 527.25-10Q488-10 443.50 36.50Q399 83 399 156.50Q399 230 447 279Q495 328 574.50 328Q654 328 698.50 285Q743 242 743 162.50Q743 83 694 36.50Q645-10 566.50-10M528.50 270.50Q528.50 270.50 526.25 258.25Q524 246 523 225Q522 204 522 157Q522 110 523 90Q524 70 528.50 46.50Q533 23 543.50 14.50Q554 6 572 6Q590 6 600.50 15Q611 24 615 49Q621 86 621 146Q621 206 620 227.50Q619 249 614.50 272Q610 295 600 303.50Q590 312 572 312Q554 312 543.50 303.50Q533 295 528.50 270.50M154 0L575 700L615 700L195 0L154 0M197.50 373Q197.50 373 158.25 373Q119 373 74.50 419.50Q30 466 30 539.50Q30 613 78 662Q126 711 205.50 711Q285 711 329.50 668Q374 625 374 545.50Q374 466 325 419.50Q276 373 197.50 373M159.50 653.50Q159.50 653.50 157.25 641.25Q155 629 154 608Q153 587 153 540Q153 493 154 473Q155 453 159.50 429.50Q164 406 174.50 397.50Q185 389 203 389Q221 389 231.50 398Q242 407 246 432Q252 470 252 529.50Q252 589 251 610.50Q250 632 245.50 655Q241 678 231 686.50Q221 695 203 695Q185 695 174.50 686.50Q164 678 159.50 653.50Z"  horiz-adv-x="768" vert-adv-y="1000"  />

      
      <glyph glyph-name="uni26" unicode="&#x26;" d="M515-226Q564-226 590.50-179Q617-132 617-63Q617 6 564 77Q488-10 355-10Q222-10 143.50 35Q65 80 65 177Q65 244 101 285Q137 326 222 345Q134 425 134 519.50Q134 614 200.50 662.50Q267 711 366 711Q465 711 514.50 675Q564 639 564 578Q564 472 403 416Q423 403 476 370Q587 298 633 254Q648 325 650 400L571 400L571 420L745 420L745 400L675 400Q673 306 656 231Q699 183 721 139Q743 95 743 28Q743-80 667-165Q591-250 494-250Q429-250 393-223Q357-196 357-154Q357-112 380.50-88.50Q404-65 440-65Q520-65 520-137Q520-152 514-173L479-173Q461-226 515-226M379 16Q485 16 547 98Q501 146 418 202Q275 296 236 330Q221 298 221 200Q221 102 260 59Q299 16 379 16M361 690Q323 690 296 666.50Q269 643 269 592Q269 541 293 508Q317 475 385 428Q427 450 437.50 481Q448 512 448 572Q448 690 361 690Z"  horiz-adv-x="822" vert-adv-y="1000"  />

      
      <glyph glyph-name="uni27" unicode="&#x27;" d="M79 481L50 747Q90 767 115 767Q149 767 149 730Q149 707 140 664L100 481L79 481Z"  horiz-adv-x="186" vert-adv-y="1000"  />

      
      <glyph glyph-name="uni28" unicode="&#x28;" d="M127.50-7Q127.50-7 108.75 27Q90 61 70 141Q50 221 50 321.50Q50 422 85 526Q120 630 195 702.50Q270 775 371 778L371 758Q314 756 290 718Q263 677 258 625Q251 554 251 446L251 159Q251-31 282-84Q311-135 371-137L371-158Q292-157 228.50-116Q165-75 127.50-7Z"  horiz-adv-x="351" vert-adv-y="1000"  />

      
      <glyph glyph-name="uni29" unicode="&#x29;" d="M223.50 626Q223.50 626 242.25 592Q261 558 281 478Q301 398 301 297.50Q301 197 266 93Q231-11 156-83.50Q81-156-20-159L-20-139Q37-137 61-100Q88-58 93-6Q100 65 100 173L100 460Q100 650 69 704Q40 754-20 756L-20 777Q59 776 122.50 735Q186 694 223.50 626Z"  horiz-adv-x="351" vert-adv-y="1000"  />

      
      <glyph glyph-name="uni2a" unicode="&#x2a;" d="M465 608L282 575L414 540Q430 536 439.50 532Q449 528 458.50 517.50Q468 507 468 492Q468 445 400 418L271 561L316 373Q283 347 256 347Q229 347 215 358Q201 369 201 389Q201 409 210 436L253 562L129 418Q102 428 81.50 447Q61 466 61 490Q61 514 76.50 524Q92 534 123 542L242 575L64 608Q60 624 60 646.50Q60 669 72.50 689.50Q85 710 109 710Q125 710 136 701.50Q147 693 164 677L255 590L211 765Q244 791 271 791Q298 791 312 780Q326 769 326 748.50Q326 728 313 693L274 589L363 678Q395 710 419.50 710Q444 710 456.50 691.50Q469 673 469 648.50Q469 624 465 608Z"  horiz-adv-x="529" vert-adv-y="1000"  />

      
      <glyph glyph-name="uni2b" unicode="&#x2b;" d="M492 301L281 301L281 92L243 92L243 301L38 301L38 334L243 334L243 530L281 530L281 334L492 334L492 301Z"  horiz-adv-x="530" vert-adv-y="1000"  />

      
      <glyph glyph-name="uni2c" unicode="&#x2c;" d="M86-156L74-141Q136-88 155-58.50Q174-29 174 6.50Q174 42 143 46L95 3Q72 11 53.50 31.50Q35 52 35 84.50Q35 117 58.50 140Q82 163 123.50 163Q165 163 191 131Q217 99 217 46Q217-7 186-56Q155-105 86-156Z"  horiz-adv-x="262" vert-adv-y="1000"  />

      
      <glyph glyph-name="uni2d" unicode="&#x2d;" d="M50 278L50 308L302 308L302 278L50 278Z"  horiz-adv-x="352" vert-adv-y="1000"  />

      
      <glyph glyph-name="uni2e" unicode="&#x2e;" d="M131.50-10Q131.50-10 109.75-10Q88-10 66.50 15.50Q45 41 45 77.50Q45 114 67.50 139Q90 164 131 164Q172 164 196 143Q220 122 220 80Q220 38 197.50 14Q175-10 131.50-10Z"  horiz-adv-x="265" vert-adv-y="1000"  />

      
      <glyph glyph-name="uni2f" unicode="&#x2f;" d="M8-97L303 795L343 795L49-97L8-97Z"  horiz-adv-x="351" vert-adv-y="1000"  />

      
      <glyph glyph-name="uni30" unicode="&#x30;" d="M326.50-10Q326.50-10 253.75-10Q181-10 105.50 88Q30 186 30 362Q30 538 111 624.50Q192 711 332.50 711Q473 711 553.50 625Q634 539 634 351Q634 163 553 76.50Q472-10 326.50-10M235 388L235 299Q235 202 236.50 162Q238 122 247 79Q256 36 276 23.50Q296 11 323 11Q350 11 363.50 14Q377 17 387.50 26.50Q398 36 405 45.50Q412 55 416.50 75Q421 95 424 112Q427 129 428 162Q430 226 430 291L430 379Q430 575 415.50 632.50Q401 690 333 690Q265 690 250 631Q235 572 235 388Z"  horiz-adv-x="664" vert-adv-y="1000"  />

      
      <glyph glyph-name="uni31" unicode="&#x31;" d="M127 674L17 660L15 680L241 711L322 711L322 19L400 19L400 0L22 0L22 19L127 19L127 674Z"  horiz-adv-x="425" vert-adv-y="1000"  />

      
      <glyph glyph-name="uni32" unicode="&#x32;" d="M35 558Q35 625 93 668Q151 711 267 711Q383 711 445.50 668Q508 625 508 539Q508 511 503 488.50Q498 466 480.50 441.50Q463 417 446.50 398Q430 379 390 348Q330 300 264 252.50Q198 205 187 197L126 153L366 153Q435 153 464 183Q493 213 505 277L522 277L512 0L42 0L42 116L143 209Q246 303 289 376.50Q332 450 332 538.50Q332 627 313 659.50Q294 692 249 692Q204 692 186 669Q168 646 168 625Q168 604 174 588L204 588Q212 567 212 537.50Q212 508 187 486.50Q162 465 121 465Q80 465 57.50 491.50Q35 518 35 558Z"  horiz-adv-x="552" vert-adv-y="1000"  />

      
      <glyph glyph-name="uni33" unicode="&#x33;" d="M42 558Q42 624 102 667.50Q162 711 280 711Q508 711 508 552Q508 487 454.50 444.50Q401 402 301 385L301 383Q425 374 484 325Q543 276 543 198Q543 102 465.50 46Q388-10 250-10Q196-10 149.50 2Q103 14 66.50 49.50Q30 85 30 134Q30 183 53.50 210Q77 237 118 237Q159 237 183 215.50Q207 194 207 164.50Q207 135 199 114L168 114Q162 98 162 81Q162 10 246 10Q305 10 326.50 55Q348 100 348 185Q348 270 327.50 308.50Q307 347 267 367Q231 359 180 354L177 376Q265 385 292.50 418Q320 451 320 535.50Q320 620 303.50 656.50Q287 693 248 693Q209 693 192.50 669.50Q176 646 176 625Q176 604 182 588L211 588Q219 567 219 537.50Q219 508 194 486.50Q169 465 128 465Q87 465 64.50 491.50Q42 518 42 558Z"  horiz-adv-x="573" vert-adv-y="1000"  />

      
      <glyph glyph-name="uni34" unicode="&#x34;" d="M182 0L182 19L276 19L276 179L5 179L5 198L287 700L460 700L460 203L559 203L559 290L578 290L578 105L559 105L559 179L460 179L460 19L529 19L529 0L182 0M37 203L276 203L276 624L37 203Z"  horiz-adv-x="603" vert-adv-y="1000"  />

      
      <glyph glyph-name="uni35" unicode="&#x35;" d="M308 234Q308 234 308 281.50Q308 329 291.50 367Q275 405 217 405Q159 405 90 362L73 370L73 689L89 701Q150 692 274 679.50Q398 667 417.50 667Q437 667 445.50 676.50Q454 686 460 709L475 707Q460 554 436 525Q423 510 403 510Q383 510 319 527L101 584L96 390Q169 429 247 429Q325 429 377 411.50Q429 394 457 363Q510 304 510 220Q510 113 433.50 51.50Q357-10 223-10Q151-10 90 20Q57 37 36.50 68.50Q16 100 16 141.50Q16 183 39.50 210Q63 237 104.50 237Q146 237 169.50 216.50Q193 196 193 163.50Q193 131 184 108L151 108Q145 92 145 70.50Q145 49 162 29.50Q179 10 212 10Q245 10 262 20.50Q279 31 288 46Q297 61 302 93Q308 139 308 234Z"  horiz-adv-x="540" vert-adv-y="1000"  />

      
      <glyph glyph-name="uni36" unicode="&#x36;" d="M34 308Q34 501 120.50 606Q207 711 358 711Q461 711 516 669.50Q571 628 571 561Q571 523 546.50 495.50Q522 468 482 468Q442 468 418 489.50Q394 511 394 540.50Q394 570 402 592L434 592Q440 608 440 628Q440 691 369 691Q298 691 265 617.50Q232 544 231 364Q283 445 382 445Q481 445 538 391.50Q595 338 595 231Q595 124 520 57Q445-10 319-10Q34-10 34 308M331 412Q331 412 314 412Q297 412 273.50 386.50Q250 361 241.50 326.50Q233 292 233 236.50Q233 181 233.50 159.50Q234 138 236.50 108.50Q239 79 244 65.50Q249 52 258 37Q274 11 309 11Q344 11 361.50 24.50Q379 38 387 70Q399 117 399 187Q399 257 398.50 280Q398 303 396 328.50Q394 354 389.50 367Q385 380 378 392Q365 412 331 412Z"  horiz-adv-x="616" vert-adv-y="1000"  />

      
      <glyph glyph-name="uni37" unicode="&#x37;" d="M235-10Q181-10 150 19.50Q119 49 119 92.50Q119 136 148.50 188.50Q178 241 277 356L442 547L186 547Q115 547 92.50 529.50Q70 512 57 446L41 446L52 700L500 700L500 592L389 398Q315 267 294.50 210.50Q274 154 274 103Q274 52 304 9L297-3Q269-10 235-10Z"  horiz-adv-x="510" vert-adv-y="1000"  />

      
      <glyph glyph-name="uni38" unicode="&#x38;" d="M249 368Q152 373 98 416.50Q44 460 44 529Q44 613 111 662Q178 711 307 711Q436 711 502 665Q568 619 568 541.50Q568 464 517 419.50Q466 375 370 368L370 365Q586 347 586 182Q586 86 518.50 38Q451-10 308-10Q25-10 25 181Q25 350 249 365L249 368M395 182.50Q395 182.50 395 228.75Q395 275 377 315Q359 355 307.50 355Q256 355 238 314.50Q220 274 220 181.50Q220 89 237.50 50Q255 11 308 11Q361 11 378 50.50Q395 90 395 182.50M308 690Q308 690 286 690Q264 690 251.50 654.50Q239 619 239 558.50Q239 498 240 477.50Q241 457 244.50 435Q248 413 256 402Q273 378 311 378Q345 378 362 402Q375 421 376 458.50Q377 496 377 557.50Q377 619 364.50 654.50Q352 690 308 690Z"  horiz-adv-x="611" vert-adv-y="1000"  />

      
      <glyph glyph-name="uni39" unicode="&#x39;" d="M584 393Q584 199 499.50 94.50Q415-10 265-10Q160-10 100.50 30Q41 70 41 134Q41 174 65.50 203.50Q90 233 130.50 233Q171 233 194.50 211.50Q218 190 218 160.50Q218 131 210 109L180 109Q173 94 173 70.50Q173 47 194.50 28.50Q216 10 258 10Q325 10 355.50 83Q386 156 387 337Q335 256 229 256Q139 256 81 314Q23 372 23 473Q23 593 102.50 652Q182 711 306 711Q584 711 584 393M287 289Q287 289 304 289Q321 289 344.50 314.50Q368 340 376.50 374.50Q385 409 385 464.50Q385 520 384.50 541.50Q384 563 382 592.50Q380 622 375 635.50Q370 649 362 664Q347 690 307 690Q262 690 240 654Q223 625 220 554Q219 529 219 486.50Q219 444 219.50 421Q220 398 222 372.50Q224 347 228.50 334Q233 321 240 309Q253 289 287 289Z"  horiz-adv-x="616" vert-adv-y="1000"  />

      
      <glyph glyph-name="uni3a" unicode="&#x3a;" d="M131.50 321Q131.50 321 109.75 321Q88 321 66.50 346.50Q45 372 45 408.50Q45 445 67.50 470Q90 495 131 495Q172 495 196 474Q220 453 220 411Q220 369 197.50 345Q175 321 131.50 321M131.50-10Q131.50-10 109.75-10Q88-10 66.50 15.50Q45 41 45 77.50Q45 114 67.50 139Q90 164 131 164Q172 164 196 143Q220 122 220 80Q220 38 197.50 14Q175-10 131.50-10Z"  horiz-adv-x="265" vert-adv-y="1000"  />

      
      <glyph glyph-name="uni3b" unicode="&#x3b;" d="M86-156L74-141Q136-88 155-58.50Q174-29 174 6.50Q174 42 143 46L95 3Q72 11 53.50 31.50Q35 52 35 84.50Q35 117 58.50 140Q82 163 123.50 163Q165 163 191 131Q217 99 217 46Q217-7 186-56Q155-105 86-156M122.50 321Q122.50 321 100.75 321Q79 321 57.50 346.50Q36 372 36 408.50Q36 445 58.50 470Q81 495 122 495Q163 495 187 474Q211 453 211 411Q211 369 188.50 345Q166 321 122.50 321Z"  horiz-adv-x="262" vert-adv-y="1000"  />

      
      <glyph glyph-name="uni3c" unicode="&#x3c;" d="M491 86L39 280L39 306L491 497L491 462L93 294L491 123L491 86Z"  horiz-adv-x="530" vert-adv-y="1000"  />

      
      <glyph glyph-name="uni3d" unicode="&#x3d;" d="M492 190L38 190L38 223L492 223L492 190M38 379L492 379L492 346L38 346L38 379Z"  horiz-adv-x="530" vert-adv-y="1000"  />

      
      <glyph glyph-name="uni3e" unicode="&#x3e;" d="M39 497L491 303L491 277L39 86L39 121L437 291L39 460L39 497Z"  horiz-adv-x="530" vert-adv-y="1000"  />

      
      <glyph glyph-name="uni3f" unicode="&#x3f;" d="M58 558Q58 623 117 667Q176 711 285.50 711Q395 711 454.50 669Q514 627 514 545Q514 491 487.50 449.50Q461 408 414 365L263 231L263 173L238 173L238 383Q238 400 249 411L311 474Q340 503 351 528.50Q362 554 362 595Q362 692 272 692Q229 692 209 669Q189 646 189 625Q189 604 195 588L227 588Q235 567 235 537.50Q235 508 210 486.50Q185 465 144 465Q103 465 80.50 491.50Q58 518 58 558M248.50-10Q248.50-10 229.75-10Q211-10 192.50 11.50Q174 33 174 65.50Q174 98 194 119.50Q214 141 249 141Q284 141 305 122.50Q326 104 326 68Q326 32 306 11Q286-10 248.50-10Z"  horiz-adv-x="580" vert-adv-y="1000"  />

      
      <glyph glyph-name="uni40" unicode="&#x40;" d="M433 395Q481 395 520 358L537 388L646 388L614 206Q602 134 602 96.50Q602 59 613.50 40.50Q625 22 659 22Q704 22 743.50 80.50Q783 139 783 237Q783 383 698 466.50Q613 550 461.50 550Q310 550 204 448Q98 346 98 174Q98 86 129.50 19.50Q161-47 214-85Q319-159 459-159Q599-159 697-76L713-94Q669-135 600.50-159Q532-183 458-183Q384-183 314.50-162Q245-141 189.50-99Q134-57 102 12Q70 81 70 170Q70 345 180.50 458.50Q291 572 467 572Q620 572 714.50 485.50Q809 399 809 244Q809 119 756.50 56Q704-7 604.50-7Q505-7 477 65Q451-5 380-5Q309-5 271 39Q233 83 233 147Q233 268 295 331.50Q357 395 433 395M481 130L515 344Q486 374 453 374Q420 374 398.50 343Q377 312 367 264Q349 178 349 97Q349 16 400 16Q429 16 451 48Q473 80 481 130Z"  horiz-adv-x="879" vert-adv-y="1000"  />

      
      <glyph glyph-name="uni41" unicode="&#x41;" d="M432 19L359 235L161 235L84 19L159 19L159 0L6 0L6 19L53 19L308 706L390 706L642 19L688 19L688 0L361 0L361 19L432 19M264 519L170 257L351 257L264 519Z"  horiz-adv-x="694" vert-adv-y="1000"  />

      
      <glyph glyph-name="uni42" unicode="&#x42;" d="M21 700L320 700Q459 700 528.50 662.50Q598 625 598 536Q598 399 433 372L433 370Q633 345 633 196Q633 87 551 43.50Q469 0 315 0L21 0L21 19L86 19L86 681L21 681L21 700M281 354L281 19L328 19Q383 19 405 57Q427 95 427 169L427 222Q427 288 400 321Q373 354 304 354L281 354M281 681L281 373L307 373Q359 373 379.50 404.50Q400 436 400 501L400 548Q400 622 382 651.50Q364 681 313 681L281 681Z"  horiz-adv-x="659" vert-adv-y="1000"  />

      
      <glyph glyph-name="uni43" unicode="&#x43;" d="M400 691Q245 691 245 392L245 313Q245 171 286 90.50Q327 10 407 10Q517 10 609 224L627 224L620 1L609 1Q603 12 598 16.50Q593 21 583.50 21Q574 21 511 5.50Q448-10 383-10Q220-10 130.50 78Q41 166 41 342.50Q41 519 134.50 615Q228 711 386 711Q447 711 505.50 695.50Q564 680 574 680Q584 680 589 684.50Q594 689 600 700L611 700L619 483L601 483Q556 584 508.50 637.50Q461 691 400 691Z"  horiz-adv-x="690" vert-adv-y="1000"  />

      
      <glyph glyph-name="uni44" unicode="&#x44;" d="M714 362Q714 156 598 75Q491 0 304 0L21 0L21 19L87 19L87 681L21 681L21 700L330 700Q522 700 618 621.50Q714 543 714 362M282 19L320 19Q421 19 464.50 90.50Q508 162 508 330L508 388Q508 613 422 659Q381 681 306 681L282 681L282 19Z"  horiz-adv-x="755" vert-adv-y="1000"  />

      
      <glyph glyph-name="uni45" unicode="&#x45;" d="M21 700L541 700L551 502L533 502Q491 603 445 640.50Q399 678 310 678L275 678L275 369L309 369Q356 369 388 404.50Q420 440 433 500L448 500L448 204L431 204Q413 279 382.50 311Q352 343 299 343L275 343L275 22L313 22Q405 22 469.50 77Q534 132 558 218L578 218L570 0L21 0L21 22L80 22L80 678L21 678L21 700Z"  horiz-adv-x="624" vert-adv-y="1000"  />

      
      <glyph glyph-name="uni46" unicode="&#x46;" d="M21 700L541 700L551 492L533 492Q496 600 447.50 639Q399 678 303 678L275 678L275 353L320 353Q368 353 400 388Q432 423 444 484L459 484L459 188L442 188Q426 263 397.50 295Q369 327 320 327L275 327L275 22L399 22L399 0L21 0L21 22L80 22L80 678L21 678L21 700Z"  horiz-adv-x="592" vert-adv-y="1000"  />

      
      <glyph glyph-name="uni47" unicode="&#x47;" d="M390 10Q439 10 452.50 28Q466 46 466 89L466 283L402 283L402 305L690 305L690 283L651 283L651 1L636 1Q618 26 585 26Q571 26 501.50 8Q432-10 383-10Q220-10 130.50 78Q41 166 41 342.50Q41 519 134.50 615Q228 711 386 711Q447 711 508.50 695.50Q570 680 580 680Q590 680 595 684.50Q600 689 606 700L617 700L625 483L607 483Q558 580 508.50 635.50Q459 691 398 691Q245 691 245 392L245 313Q245 163 282.50 86.50Q320 10 390 10Z"  horiz-adv-x="723" vert-adv-y="1000"  />

      
      <glyph glyph-name="uni48" unicode="&#x48;" d="M21 700L333 700L333 681L275 681L275 371L474 371L474 681L415 681L415 700L728 700L728 681L669 681L669 19L728 19L728 0L415 0L415 19L474 19L474 345L275 345L275 19L333 19L333 0L21 0L21 19L80 19L80 681L21 681L21 700Z"  horiz-adv-x="749" vert-adv-y="1000"  />

      
      <glyph glyph-name="uni49" unicode="&#x49;" d="M25 700L330 700L330 681L275 681L275 19L330 19L330 0L25 0L25 19L80 19L80 681L25 681L25 700Z"  horiz-adv-x="355" vert-adv-y="1000"  />

      
      <glyph glyph-name="uni4a" unicode="&#x4a;" d="M176 700L501 700L501 681L446 681L446 249Q446 114 385 52.50Q324-9 202-9Q121-9 73.50 22Q26 53 26 109Q26 152 50 176.50Q74 201 115.50 201Q157 201 177.50 180Q198 159 198 129.50Q198 100 187 70L148 70Q139 55 139 41.50Q139 28 152.50 18.50Q166 9 188 9Q228 9 239.50 40.50Q251 72 251 177L251 681L176 681L176 700Z"  horiz-adv-x="517" vert-adv-y="1000"  />

      
      <glyph glyph-name="uni4b" unicode="&#x4b;" d="M25 700L330 700L330 681L275 681L275 365L283 367L565 681L486 681L486 700L661 700L661 681L601 681L429 489L669 19L723 19L723 0L402 0L402 19L449 19L284 338L275 336L275 19L330 19L330 0L25 0L25 19L80 19L80 681L25 681L25 700Z"  horiz-adv-x="734" vert-adv-y="1000"  />

      
      <glyph glyph-name="uni4c" unicode="&#x4c;" d="M21 700L381 700L381 678L275 678L275 22L311 22Q396 22 446.50 74Q497 126 549 234L570 234L551 0L21 0L21 22L80 22L80 678L21 678L21 700Z"  horiz-adv-x="596" vert-adv-y="1000"  />

      
      <glyph glyph-name="uni4d" unicode="&#x4d;" d="M548 700L815 700L815 681L760 681L760 19L815 19L815 0L510 0L510 19L565 19L565 644L561 644L411 0L286 0L110 647L106 647L106 19L161 19L161 0L25 0L25 19L80 19L80 681L25 681L25 700L295 700L428 185L548 700Z"  horiz-adv-x="840" vert-adv-y="1000"  />

      
      <glyph glyph-name="uni4e" unicode="&#x4e;" d="M590 681L590 0L450 0L107 647L107 19L162 19L162 0L25 0L25 19L80 19L80 681L25 681L25 700L301 700L563 198L563 681L508 681L508 700L645 700L645 681L590 681Z"  horiz-adv-x="670" vert-adv-y="1000"  />

      
      <glyph glyph-name="uni4f" unicode="&#x4f;" d="M501 309L501 383Q501 566 483 614Q463 669 426 682Q405 690 375 690Q345 690 323.50 682Q302 674 288 654Q274 634 265.50 612Q257 590 252 550Q246 492 246 379L246 307Q246 185 255.50 133.50Q265 82 279 60Q310 11 375 11Q454 11 477.50 77.50Q501 144 501 309M373-10Q373-10 289.50-10Q206-10 123.50 80.50Q41 171 41 342.50Q41 514 129.50 612.50Q218 711 380 711Q542 711 624.50 617.50Q707 524 707 352Q707 180 623.50 85Q540-10 373-10Z"  horiz-adv-x="748" vert-adv-y="1000"  />

      
      <glyph glyph-name="uni50" unicode="&#x50;" d="M15 700L309 700Q460 700 534 656.50Q608 613 608 501Q608 377 518 330Q434 287 283 287L275 287L275 19L400 19L400 0L15 0L15 19L80 19L80 681L15 681L15 700M275 681L275 306L296 306Q356 306 379 347Q402 388 402 480L402 528Q402 613 380.50 647Q359 681 302 681L275 681Z"  horiz-adv-x="634" vert-adv-y="1000"  />

      
      <glyph glyph-name="uni51" unicode="&#x51;" d="M41 339Q41 514 129.50 612.50Q218 711 380 711Q542 711 624.50 617.50Q707 524 707 352Q707 25 423-1L423-8Q480-14 507.50-39Q535-64 549-105.50Q563-147 574-162Q585-177 607-177Q645-177 652-97L674-99Q672-165 633-200Q594-235 524.50-235Q455-235 417-200.50Q379-166 359-99Q346-58 337-46Q328-34 314-34Q286-34 240-75L226-59Q266-19 317-10L317-4Q181 10 111 99Q41 188 41 339M501 309L501 383Q501 566 483 614Q463 669 426 682Q405 690 375 690Q345 690 323.50 682Q302 674 288 654Q274 634 265.50 612Q257 590 252 550Q246 492 246 379L246 307Q246 185 255.50 133.50Q265 82 279 60Q310 11 375 11Q454 11 477.50 77.50Q501 144 501 309Z"  horiz-adv-x="748" vert-adv-y="1000"  />

      
      <glyph glyph-name="uni52" unicode="&#x52;" d="M328 354L275 354L275 19L340 19L340 0L15 0L15 19L80 19L80 681L15 681L15 700L317 700Q447 700 501.50 686.50Q556 673 578 654Q626 615 626 530Q626 445 584 408.50Q542 372 456 365L456 362Q537 351 569 314Q601 277 601 190L601 137Q601 85 606.50 67Q612 49 630 49Q648 49 658.50 65.50Q669 82 678 135L695 133Q684 48 656.50 19Q629-10 547-10Q465-10 430.50 28.50Q396 67 396 173L396 246Q396 302 381.50 328Q367 354 328 354M275 681L275 373L307 373Q364 373 391.50 408Q419 443 419 522L419 551Q419 630 392.50 655.50Q366 681 308 681L275 681Z"  horiz-adv-x="716" vert-adv-y="1000"  />

      
      <glyph glyph-name="uni53" unicode="&#x53;" d="M325 11Q375 11 413.50 38Q452 65 452 119.50Q452 174 410.50 203Q369 232 292.50 253.50Q216 275 181.50 291Q147 307 116 333Q54 385 54 494Q54 583 117.50 647Q181 711 291 711Q344 711 401.50 695.50Q459 680 473 680Q487 680 498 700L509 700L516 498L500 498Q452 585 399.50 637.50Q347 690 285.50 690Q224 690 190 661.50Q156 633 156 585.50Q156 538 196.50 512.50Q237 487 296 471Q355 455 373.50 449Q392 443 419.50 432.50Q447 422 464.50 410.50Q482 399 501.50 381.50Q521 364 532 343Q559 295 559 229Q559 121 491.50 55.50Q424-10 314-10Q257-10 183.50 5Q110 20 102 20Q88 20 75-10L61-10L51 228L68 228Q112 141 180.50 76Q249 11 325 11Z"  horiz-adv-x="600" vert-adv-y="1000"  />

      
      <glyph glyph-name="uni54" unicode="&#x54;" d="M636 700L646 449L627 449Q583 582 549 630.50Q515 679 451 679L439 679L439 21L524 21L524 0L159 0L159 21L244 21L244 679L231 679Q167 679 132 628.50Q97 578 55 449L36 449L46 700L636 700Z"  horiz-adv-x="683" vert-adv-y="1000"  />

      
      <glyph glyph-name="uni55" unicode="&#x55;" d="M271 213Q271 121 302.50 72Q334 23 416 23Q498 23 542 74Q586 125 586 229L586 681L521 681L521 700L667 700L667 681L612 681L612 236Q612 112 557 51Q502-10 362.50-10Q223-10 149.50 48Q76 106 76 247L76 681L21 681L21 700L336 700L336 681L271 681L271 213Z"  horiz-adv-x="683" vert-adv-y="1000"  />

      
      <glyph glyph-name="uni56" unicode="&#x56;" d="M430 181L604 681L526 681L526 700L679 700L679 681L632 681L391-10L307-10L52 681L6 681L6 700L333 700L333 681L262 681L430 181Z"  horiz-adv-x="685" vert-adv-y="1000"  />

      
      <glyph glyph-name="uni57" unicode="&#x57;" d="M424 202L507 490L447 681L390 681L390 700L700 700L700 681L641 681L790 208L910 681L809 681L809 700L1009 700L1009 681L943 681L759-10L670-10L522 442L392-10L305-10L53 681L6 681L6 700L331 700L331 681L261 681L424 202Z"  horiz-adv-x="1015" vert-adv-y="1000"  />

      
      <glyph glyph-name="uni58" unicode="&#x58;" d="M700 0L358 0L358 19L424 19L275 283L116 19L222 19L222 0L15 0L15 19L82 19L257 313L48 680L-6 680L-6 700L331 700L331 680L263 680L398 438L549 680L445 680L445 700L650 700L650 680L584 680L415 410L642 19L700 19L700 0Z"  horiz-adv-x="711" vert-adv-y="1000"  />

      
      <glyph glyph-name="uni59" unicode="&#x59;" d="M397 371L539 684L438 684L438 700L635 700L635 684L569 684L418 350L418 19L479 19L479 0L162 0L162 19L223 19L223 331L53 684L6 684L6 700L326 700L326 684L261 684L397 371Z"  horiz-adv-x="641" vert-adv-y="1000"  />

      
      <glyph glyph-name="uni5a" unicode="&#x5a;" d="M559 700L559 678L263 23L297 23Q387 23 455.50 80.50Q524 138 554 244L572 244L560 0L48 0L48 19L347 678L306 678Q217 678 171 639Q125 600 67 479L49 479L64 700L559 700Z"  horiz-adv-x="612" vert-adv-y="1000"  />

      
      <glyph glyph-name="uni5b" unicode="&#x5b;" d="M349-142L349-160L61-160L61 781L349 781L349 763L304 763Q267 763 256.50 754Q246 745 246 711L246-89Q246-126 255.50-134Q265-142 303-142L349-142Z"  horiz-adv-x="329" vert-adv-y="1000"  />

      
      <glyph glyph-name="uni5c" unicode="&#x5c;" d="M49 795L344-97L302-97L8 795L49 795Z"  horiz-adv-x="351" vert-adv-y="1000"  />

      
      <glyph glyph-name="uni5d" unicode="&#x5d;" d="M-20-160L-20-142L26-142Q64-142 73.50-134Q83-126 83-89L83 711Q83 745 72.50 754Q62 763 25 763L-20 763L-20 781L268 781L268-160L-20-160Z"  horiz-adv-x="328" vert-adv-y="1000"  />

      
      <glyph glyph-name="uni5e" unicode="&#x5e;" d="M500 300L463 285L273 621L98 284L60 300L249 664L298 664L500 300Z"  horiz-adv-x="560" vert-adv-y="1000"  />

      
      <glyph glyph-name="uni5f" unicode="&#x5f;" d="M500-106L0-106L0-69L500-69L500-106Z"  horiz-adv-x="500" vert-adv-y="1000"  />

      
      <glyph glyph-name="uni60" unicode="&#x60;" d="M246 723L309 532L298 525L164 636Q135 662 135 686.50Q135 711 151.50 725.50Q168 740 199 733L246 723Z"  horiz-adv-x="500" vert-adv-y="1000"  />

      
      <glyph glyph-name="uni61" unicode="&#x61;" d="M250 235L279 235L279 312Q279 407 268.50 439.50Q258 472 228 472Q210 472 195.50 462.50Q181 453 181 436.50Q181 420 187 403L212 403Q220 382 220 352.50Q220 323 195 301.50Q170 280 132 280Q46 280 46 363Q46 486 255 486Q374 486 419.50 445.50Q465 405 465 297L465 94Q465 42 494 42Q528 42 534 145L549 144Q545 56 516 23Q487-10 421-10Q301-10 283 64Q270 26 244 8Q218-10 168-10Q20-10 20 111Q20 182 76.50 208.50Q133 235 250 235M210 112Q210 60 215.50 45Q221 30 236.50 30Q252 30 265.50 55.50Q279 81 279 126L279 219L272 219Q210 219 210 128L210 112Z"  horiz-adv-x="549" vert-adv-y="1000"  />

      
      <glyph glyph-name="uni62" unicode="&#x62;" d="M375 269Q375 372 365 407.50Q355 443 326 443Q297 443 274 407Q251 371 251 308L251 122Q251 79 268.50 49Q286 19 318.50 19Q351 19 363 63Q375 107 375 217L375 269M251 750L251 400Q289 486 381 486Q568 486 568 237Q568 110 516.50 50Q465-10 362-10Q310-10 282.50 6Q255 22 245 59L238 0L10 0L10 18L65 18L65 732L10 732L10 750L251 750Z"  horiz-adv-x="588" vert-adv-y="1000"  />

      
      <glyph glyph-name="uni63" unicode="&#x63;" d="M290 468Q246 468 227 420Q208 372 208 261L208 209Q208 110 230 67Q252 24 311 24Q370 24 405 64Q440 104 450 155L468 153Q449 67 398 29Q346-10 255-10Q139-10 77 52.50Q15 115 15 235.50Q15 356 85.50 421Q156 486 282 486Q371 486 418 451.50Q465 417 465 365Q465 313 442.50 289Q420 265 380.50 265Q341 265 317 286Q293 307 293 348Q293 366 298 384L331 384Q338 404 338 420Q338 468 290 468Z"  horiz-adv-x="483" vert-adv-y="1000"  />

      
      <glyph glyph-name="uni64" unicode="&#x64;" d="M213 207Q213 102 224 67.50Q235 33 264.50 33Q294 33 315.50 59Q337 85 337 136L337 354Q337 397 320 427Q303 457 270 457Q237 457 225 413Q213 369 213 259L213 207M350 0L339 70Q305-10 201-10Q115-10 67.50 52Q20 114 20 237Q20 486 218 486Q306 486 334 437L334 732L273 732L273 750L523 750L523 18L572 18L572 0L350 0Z"  horiz-adv-x="588" vert-adv-y="1000"  />

      
      <glyph glyph-name="uni65" unicode="&#x65;" d="M273-10Q144-10 79.50 56.50Q15 123 15 241.50Q15 360 87.50 423Q160 486 272 486Q499 486 490 258L208 258L208 219Q208 121 233 71Q258 21 320 21Q436 21 472 145L490 142Q471 70 421.50 30Q372-10 273-10M209 278L312 278L312 327Q312 408 302.50 437.50Q293 467 264.50 467Q236 467 222.50 435.50Q209 404 209 327L209 278Z"  horiz-adv-x="516" vert-adv-y="1000"  />

      
      <glyph glyph-name="uni66" unicode="&#x66;" d="M313 756Q275 756 263 727.50Q251 699 251 636L251 476L383 476L383 458L251 458L251 18L373 18L373 0L10 0L10 18L65 18L65 458L7 458L7 476L65 476L65 480Q65 624 120 698.50Q175 773 304 773Q389 773 426 739.50Q463 706 463 662Q463 618 440 596Q417 574 379 574Q341 574 320.50 593.50Q300 613 300 638.50Q300 664 306 688L344 688Q364 756 313 756Z"  horiz-adv-x="383" vert-adv-y="1000"  />

      
      <glyph glyph-name="uni67" unicode="&#x67;" d="M411 528L439 545Q445 576 415 576Q372 576 372 510Q372 484 379 450Q455 399 455 319.50Q455 240 400 196Q345 152 251 152Q212 152 170 160Q126 132 126 118Q126 104 190 104L292 104Q519 104 519-59Q519-147 450.50-198.50Q382-250 237-250Q-10-250-10-143Q-10-85 67-63L127-90Q119-119 119-145Q119-231 247-231Q325-231 367-202Q409-173 409-130Q409-87 383.50-72.50Q358-58 282-58L185-58Q104-58 69-31Q34-4 34 35.50Q34 75 59 101.50Q84 128 148 167Q32 200 32 319Q32 394 86 440Q140 486 248 486Q313 486 359 461Q353 488 353 510Q353 566 383 591Q413 616 450 616Q487 616 509.50 596.50Q532 577 532 543Q532 509 514 492.50Q496 476 470.50 476Q445 476 428.50 489.50Q412 503 411 528M199 341L199 287Q199 220 210.50 196Q222 172 245.50 172Q269 172 279.50 195.50Q290 219 290 292L290 341Q290 419 280 443.50Q270 468 246.50 468Q223 468 211 442.50Q199 417 199 341Z"  horiz-adv-x="522" vert-adv-y="1000"  />

      
      <glyph glyph-name="uni68" unicode="&#x68;" d="M10 750L251 750L251 384Q267 430 300 458Q333 486 400 486Q555 486 555 319L555 18L611 18L611 0L328 0L328 18L369 18L369 343Q369 403 361 420.50Q353 438 332 438Q300 438 275.50 396Q251 354 251 294L251 18L294 18L294 0L10 0L10 18L65 18L65 732L10 732L10 750Z"  horiz-adv-x="616" vert-adv-y="1000"  />

      
      <glyph glyph-name="uni69" unicode="&#x69;" d="M157 545Q157 545 130.50 545Q104 545 81.50 572Q59 599 59 639Q59 679 83.50 705Q108 731 158 731Q208 731 234 707.50Q260 684 260 640.50Q260 597 235 571Q210 545 157 545M6 476L251 476L251 18L307 18L307 0L10 0L10 18L65 18L65 458L6 458L6 476Z"  horiz-adv-x="317" vert-adv-y="1000"  />

      
      <glyph glyph-name="uni6a" unicode="&#x6a;" d="M251 476L251 86Q251-78 194.50-164Q138-250 10-250Q-73-250-111.50-217Q-150-184-150-140Q-150-96-124-72.50Q-98-49-59-49Q-20-49-0.50-70.50Q19-92 19-118Q19-144 13-168L-25-168Q-41-195-29.50-214Q-18-233 12.50-233Q43-233 54-198.50Q65-164 65-56L65 458L0 458L0 476L251 476M156 545Q156 545 129.50 545Q103 545 80.50 572Q58 599 58 639Q58 679 82.50 705Q107 731 157 731Q207 731 233 707.50Q259 684 259 640.50Q259 597 234 571Q209 545 156 545Z"  horiz-adv-x="311" vert-adv-y="1000"  />

      
      <glyph glyph-name="uni6b" unicode="&#x6b;" d="M337 0L337 18L383 18L270 250L251 245L251 18L297 18L297 0L10 0L10 18L65 18L65 732L6 732L6 750L251 750L251 265L267 271L492 458L398 458L398 476L595 476L595 458L525 458L406 357L579 18L615 18L615 0L337 0Z"  horiz-adv-x="620" vert-adv-y="1000"  />

      
      <glyph glyph-name="uni6c" unicode="&#x6c;" d="M6 750L251 750L251 18L307 18L307 0L10 0L10 18L65 18L65 732L6 732L6 750Z"  horiz-adv-x="316" vert-adv-y="1000"  />

      
      <glyph glyph-name="uni6d" unicode="&#x6d;" d="M10 476L251 476L251 384Q284 486 396.50 486Q509 486 533 378Q568 486 680 486Q827 486 827 319L827 18L883 18L883 0L606 0L606 18L641 18L641 343Q641 419 628 432Q622 438 612 438Q583 438 561 399Q539 360 539 300L539 18L575 18L575 0L318 0L318 18L353 18L353 343Q353 419 340 432Q334 438 324 438Q296 438 273.50 395.50Q251 353 251 294L251 18L287 18L287 0L10 0L10 18L65 18L65 458L10 458L10 476Z"  horiz-adv-x="888" vert-adv-y="1000"  />

      
      <glyph glyph-name="uni6e" unicode="&#x6e;" d="M12 476L253 476L253 384Q269 430 302 458Q335 486 402 486Q557 486 557 319L557 18L613 18L613 0L330 0L330 18L371 18L371 343Q371 403 363 420.50Q355 438 334 438Q302 438 277.50 396Q253 354 253 294L253 18L296 18L296 0L12 0L12 18L67 18L67 458L12 458L12 476Z"  horiz-adv-x="616" vert-adv-y="1000"  />

      
      <glyph glyph-name="uni6f" unicode="&#x6f;" d="M333 197L333 282Q333 379 322.50 423.50Q312 468 274 468Q252 468 238.50 455.50Q225 443 219 414Q210 369 210 277L210 199Q210 90 216.50 68Q223 46 230 32Q241 8 273 8Q312 8 324 53Q333 85 333 197M271-10Q146-10 82 54Q18 118 18 237.50Q18 357 86.50 421.50Q155 486 279 486Q403 486 464 426.50Q525 367 525 245Q525-10 271-10Z"  horiz-adv-x="543" vert-adv-y="1000"  />

      
      <glyph glyph-name="uni70" unicode="&#x70;" d="M375 269Q375 372 365 407.50Q355 443 326 443Q297 443 274 405.50Q251 368 251 305L251 122Q251 79 268 49Q285 19 318 19Q351 19 363 63Q375 107 375 217L375 269M249 476L249 397Q288 486 387 486Q473 486 520.50 424Q568 362 568 236Q568 110 516.50 50Q465-10 362-10Q314-10 290 2Q266 14 251 39L251-220L380-220L380-238L10-238L10-220L65-220L65 458L12 458L12 476L249 476Z"  horiz-adv-x="588" vert-adv-y="1000"  />

      
      <glyph glyph-name="uni71" unicode="&#x71;" d="M213 207Q213 104 223 68.50Q233 33 262 33Q291 33 314 69Q337 105 337 168L337 354Q337 397 319.50 427Q302 457 271 457Q236 457 224.50 412.50Q213 368 213 259L213 207M337-220L337 76Q299-10 207-10Q20-10 20 239Q20 366 71.50 426Q123 486 226 486Q309 486 343 423L350 476L578 476L578 458L523 458L523-220L572-220L572-238L235-238L235-220L337-220Z"  horiz-adv-x="588" vert-adv-y="1000"  />

      
      <glyph glyph-name="uni72" unicode="&#x72;" d="M344 448Q307 448 279 400Q251 352 251 286L251 18L322 18L322 0L10 0L10 18L65 18L65 458L10 458L10 476L251 476L251 380Q264 431 301 458.50Q338 486 385 486Q432 486 461.50 459.50Q491 433 491 384.50Q491 336 469 310Q447 284 401.50 284Q356 284 334.50 314Q313 344 329 397L365 397Q390 448 344 448Z"  horiz-adv-x="495" vert-adv-y="1000"  />

      
      <glyph glyph-name="uni73" unicode="&#x73;" d="M33-10L33 169L45 169Q71 82 115 47Q159 12 225 12Q327 12 327 77Q327 105 302 119Q263 141 202 153Q134 171 88 201Q33 237 33 315Q33 393 81 439.50Q129 486 209 486Q258 486 310 463Q329 455 339 455Q349 455 356 462Q363 469 373 488L384 488L384 335L372 335Q321 465 214 465Q167 465 144 448.50Q121 432 121 407Q121 392 128 383.50Q135 375 139 371Q143 367 152 362.50Q161 358 167 355.50Q173 353 185.50 349Q198 345 204 344Q272 327 302 314.50Q332 302 359 284Q414 246 414 161.50Q414 77 364 33.50Q314-10 227-10Q165-10 107 19Q95 27 88 27Q66 27 45-10L33-10Z"  horiz-adv-x="434" vert-adv-y="1000"  />

      
      <glyph glyph-name="uni74" unicode="&#x74;" d="M60 143L60 458L5 458L5 476L60 476L60 605L246 651L246 476L376 476L376 458L246 458L246 121Q246 74 255.50 52Q265 30 295 30Q325 30 347.50 60Q370 90 377 142L394 140Q386 71 350 30.50Q314-10 231-10Q148-10 104 23Q60 56 60 143Z"  horiz-adv-x="394" vert-adv-y="1000"  />

      
      <glyph glyph-name="uni75" unicode="&#x75;" d="M595 0L367 0L356 73Q340 33 308.50 11.50Q277-10 215-10Q60-10 60 157L60 458L4 458L4 476L246 476L246 133Q246 73 254.50 54Q263 35 288.50 35Q314 35 334 66Q354 97 354 152L354 458L308 458L308 476L540 476L540 18L595 18L595 0Z"  horiz-adv-x="605" vert-adv-y="1000"  />

      
      <glyph glyph-name="uni76" unicode="&#x76;" d="M0 458L0 476L299 476L299 458L236 458L356 126L464 458L397 458L397 476L532 476L532 458L488 458L340 0L226 0L41 458L0 458Z"  horiz-adv-x="532" vert-adv-y="1000"  />

      
      <glyph glyph-name="uni77" unicode="&#x77;" d="M352 458L352 476L610 476L610 458L569 458L659 121L748 458L679 458L679 476L814 476L814 458L772 458L652 0L515 0L428 307L334 0L200 0L52 458L7 458L7 476L310 476L310 458L250 458L342 118L414 352L389 458L352 458Z"  horiz-adv-x="834" vert-adv-y="1000"  />

      
      <glyph glyph-name="uni78" unicode="&#x78;" d="M367 295L485 458L413 458L413 476L562 476L562 458L510 458L380 274L543 18L595 18L595 0L261 0L261 18L332 18L222 198L108 18L174 18L174 0L17 0L17 18L83 18L210 218L58 458L0 458L0 476L338 476L338 458L268 458L367 295Z"  horiz-adv-x="595" vert-adv-y="1000"  />

      
      <glyph glyph-name="uni79" unicode="&#x79;" d="M5 458L5 476L295 476L295 458L241 458L350 126L466 458L399 458L399 476L540 476L540 458L490 458L303-81Q270-175 229-212.50Q188-250 129-250Q70-250 36-223Q2-196 2-154Q2-112 24-90Q46-68 82-68Q165-68 165-137Q165-152 159-173L124-173Q116-196 122-211Q128-226 149-226Q190-226 222-185.50Q254-145 283-62L305 0L217 0L46 458L5 458Z"  horiz-adv-x="532" vert-adv-y="1000"  />

      
      <glyph glyph-name="uni7a" unicode="&#x7a;" d="M475 476L475 458L238 18L251 18Q335 18 383 62Q431 106 458 205L472 205L456 0L36 0L36 15L277 458L266 458Q165 458 125.50 425Q86 392 55 284L42 284L55 476L475 476Z"  horiz-adv-x="520" vert-adv-y="1000"  />

      
      <glyph glyph-name="uni7b" unicode="&#x7b;" d="M24 324Q118 326 118 441Q118 482 103.50 552.50Q89 623 89 643Q89 780 276 780Q333 780 368 767L363 751Q342 758 323 758Q269 758 269 693Q269 663 283 573.50Q297 484 297 450Q297 381 258.50 352.50Q220 324 127 319L127 317Q216 310 256.50 280.50Q297 251 297 180Q297 149 283 53.50Q269-42 269-75Q269-136 328-136Q350-136 372-128L377-144Q340-160 291-160Q89-160 89-15Q89 1 103.50 76.50Q118 152 118 192Q118 306 24 308L24 324Z"  horiz-adv-x="377" vert-adv-y="1000"  />

      
      <glyph glyph-name="uni7c" unicode="&#x7c;" d="M140-127L140 795L179 795L179-127L140-127Z"  horiz-adv-x="319" vert-adv-y="1000"  />

      
      <glyph glyph-name="uni7d" unicode="&#x7d;" d="M353 324L353 308Q259 306 259 192Q259 152 273.50 76.50Q288 1 288-15Q288-160 86-160Q37-160 0-144L5-128Q27-136 52-136Q108-136 108-69Q108-42 94 53.50Q80 149 80 180Q80 251 120.50 280.50Q161 310 250 317L250 319Q157 324 118.50 352.50Q80 381 80 450Q80 484 94 573.50Q108 663 108 693Q108 758 54 758Q35 758 14 751L9 767Q44 780 101 780Q288 780 288 643Q288 623 273.50 552.50Q259 482 259 441Q259 326 353 324Z"  horiz-adv-x="377" vert-adv-y="1000"  />

      
      <glyph glyph-name="uni7e" unicode="&#x7e;" d="M179 398Q211 398 296 378Q381 358 410 358Q439 358 452.50 367Q466 376 478 401L490 398Q464 299 440.50 268Q417 237 376 237Q335 237 255 257.50Q175 278 144 278Q94 278 72 235L60 240Q78 316 104 357Q130 398 179 398Z"  horiz-adv-x="530" vert-adv-y="1000"  />

      
      <glyph glyph-name="unia1" unicode="&#xa1;" d="M178 212L178 298L200 298L200 213Q200 127 235 10Q270-107 270-154Q270-235 194-235Q160-235 136.50-216Q113-197 113-154Q113-111 145.50 7.50Q178 126 178 212M186 335Q186 335 168.50 335Q151 335 131 356.50Q111 378 111 410.50Q111 443 129.50 464.50Q148 486 185.50 486Q223 486 243 465Q263 444 263 408Q263 372 242 353.50Q221 335 186 335Z"  horiz-adv-x="377" vert-adv-y="1000"  />

      
      <glyph glyph-name="unia2" unicode="&#xa2;" d="M312 511Q271 511 251.50 466.50Q232 422 232 322L232 275Q232 186 254 147Q276 108 331.50 108Q387 108 419 144.50Q451 181 460 228L479 224Q467 170 434 130Q391 75 279 75Q246 75 222 79L199-26L171-20L194 85Q54 125 54 296Q54 409 120.50 468.50Q187 528 305 528L314 528L338 635L366 630L343 526Q407 519 441.50 487.50Q476 456 476 410Q476 325 401 325Q326 325 326 400Q326 417 331 433L362 433Q368 451 368 469.50Q368 488 351 499.50Q334 511 312 511Z"  horiz-adv-x="515" vert-adv-y="1000"  />

      
      <glyph glyph-name="unia3" unicode="&#xa3;" d="M36 298L36 326L113 326Q93 360 82.50 380Q72 400 61 435Q50 470 50 503Q50 602 121.50 656.50Q193 711 307 711Q421 711 477.50 668Q534 625 534 558Q534 518 511.50 491.50Q489 465 448 465Q407 465 382 486.50Q357 508 357 537.50Q357 567 365 588L396 588Q402 604 402 622Q402 692 329 692Q274 692 259.50 656.50Q245 621 245 530L245 326L421 326L421 298L245 298L245 268Q245 217 225 184.50Q205 152 153 101L156 96Q251 160 302 160Q337 160 398 127.50Q459 95 480.50 95Q502 95 514 114.50Q526 134 530 187L551 186Q547 90 509.50 35.50Q472-19 421-19Q370-19 315 8L163 80Q157 35 132.50 12Q108-11 77-11Q46-11 34.50 2Q23 15 23 33Q23 64 53.50 85.50Q84 107 131 108Q153 151 153 194.50Q153 238 125 298L36 298Z"  horiz-adv-x="581" vert-adv-y="1000"  />

      
      <glyph glyph-name="unia4" unicode="&#xa4;" d="M127 236Q99 277 99 334.50Q99 392 128 436L51 525L70 543L160 472Q206 503 265 503Q324 503 362 473L452 542L469 526L394 441Q422 399 422 344.50Q422 290 392 243L467 145L449 128L355 205Q318 176 259.50 176Q201 176 162 203L73 129L55 147L127 236M261 474Q261 474 230.50 474Q200 474 169 436Q138 398 138 339Q138 280 167.50 243.50Q197 207 258.50 207Q320 207 351.50 245Q383 283 383 341.50Q383 400 352.50 437Q322 474 261 474Z"  horiz-adv-x="530" vert-adv-y="1000"  />

      
      <glyph glyph-name="unia5" unicode="&#xa5;" d="M387 391L529 684L428 684L428 700L625 700L625 684L559 684L411 377L528 377L528 349L408 349L408 276L528 276L528 248L408 248L408 19L469 19L469 0L152 0L152 19L213 19L213 248L99 248L99 276L213 276L213 349L99 349L99 377L199 377L43 684L-4 684L-4 700L316 700L316 684L251 684L387 391Z"  horiz-adv-x="609" vert-adv-y="1000"  />

      
      <glyph glyph-name="unia6" unicode="&#xa6;" d="M140 412L140 795L179 795L179 412L140 412M140-127L140 310L179 310L179-127L140-127Z"  horiz-adv-x="319" vert-adv-y="1000"  />

      
      <glyph glyph-name="unia7" unicode="&#xa7;" d="M70 414.50Q70 414.50 70 486.75Q70 559 157 635Q244 711 358.50 711Q473 711 526.50 672.50Q580 634 580 568Q580 528 557.50 501.50Q535 475 494 475Q453 475 428 496.50Q403 518 403 547.50Q403 577 411 598L447 606Q453 622 453 642Q453 692 374 692Q306 692 280 634Q259 584 255 490Q341 472 403 448.50Q465 425 516 388Q619 313 619 169Q619 25 532-51Q445-127 330.50-127Q216-127 162.50-88.50Q109-50 109 16Q109 56 131.50 82.50Q154 109 195 109Q236 109 261 87.50Q286 66 286 36.50Q286 7 278-14L242-22Q236-38 236-58Q236-108 315-108Q381-108 405.50-56.50Q430-5 433 94Q347 112 285 135.50Q223 159 172 196Q70 270 70 414.50M434 155Q434 280 393.50 353Q353 426 255 465L255 429Q255 304 295 230.50Q335 157 434 118L434 155Z"  horiz-adv-x="699" vert-adv-y="1000"  />

      
      <glyph glyph-name="unia8" unicode="&#xa8;" d="M309 565Q309 565 300 576Q291 587 291 618Q291 649 310.50 670Q330 691 364.50 691Q399 691 419.50 672.50Q440 654 440 619Q440 584 420.50 563.50Q401 543 364 543Q327 543 309 565M116 565Q116 565 107 576Q98 587 98 618Q98 649 117.50 670Q137 691 171.50 691Q206 691 226.50 672.50Q247 654 247 619Q247 584 227.50 563.50Q208 543 171 543Q134 543 116 565Z"  horiz-adv-x="500" vert-adv-y="1000"  />

      
      <glyph glyph-name="unia9" unicode="&#xa9;" d="M397 636Q397 636 470.50 636Q544 636 632.50 550.50Q721 465 721 316.50Q721 168 630 78.50Q539-11 385-11Q231-11 145.50 76Q60 163 60 310Q60 457 155 546.50Q250 636 397 636M389 12Q389 12 460 12Q531 12 613.50 93Q696 174 696 316Q696 458 612 536Q528 614 393 614Q258 614 172 532Q86 450 86 309Q86 168 166.50 90Q247 12 389 12M517 390Q501 436 472.50 466Q444 496 411.50 496Q379 496 365.50 461Q352 426 352 320.50Q352 215 365 177.50Q378 140 415 140Q452 140 480 171Q508 202 524 247L536 247L532 128L522 128Q520 130 518.50 134Q517 138 516 140Q512 143 508 143L473 132Q438 122 407 122Q314 122 261 170.50Q208 219 208 315.50Q208 412 263 463Q318 514 411 514Q438 514 470.50 504Q503 494 505.50 494Q508 494 510 495.50Q512 497 513 498.50Q514 500 516 504Q518 508 519 509L528 509L531 390L517 390Z"  horiz-adv-x="781" vert-adv-y="1000"  />

      
      <glyph glyph-name="uniaa" unicode="&#xaa;" d="M205 568L227 568L227 623Q227 690 219 711.50Q211 733 188 733Q152 733 152 708Q152 699 156 688L176 688Q182 670 182 650.50Q182 631 162.50 615.50Q143 600 114 600Q47 600 47 659Q47 747 209 747Q301 747 336 718Q371 689 371 612L371 472Q371 435 393 435Q405 435 412 449Q419 463 422 505L435 503Q433 441 410.50 417.50Q388 394 337 394Q245 394 230 447Q221 420 201 407Q181 394 142 394Q27 394 27 480Q27 531 71 549.50Q115 568 205 568M178 436.50Q178 436.50 180 431.25Q182 426 194 426Q206 426 216.50 444Q227 462 227 491L227 553L222 553Q197 553 185.50 539Q174 525 174 492L174 481Q174 447 178 436.50Z"  horiz-adv-x="454" vert-adv-y="1000"  />

      
      <glyph glyph-name="uniab" unicode="&#xab;" d="M239 263L416 401L425 394L339 231L424 56L415 49L256 179Q226 205 226 223.50Q226 242 239 263M63 263L240 401L249 394L163 231L248 56L239 49L80 179Q50 205 50 223.50Q50 242 63 263Z"  horiz-adv-x="494" vert-adv-y="1000"  />

      
      <glyph glyph-name="uniac" unicode="&#xac;" d="M457 167L457 301L38 301L38 334L492 334L492 167L457 167Z"  horiz-adv-x="530" vert-adv-y="1000"  />

      
      <glyph glyph-name="uniad" unicode="&#xad;" d="M47 278L47 308L299 308L299 278L47 278Z"  horiz-adv-x="340" vert-adv-y="1000"  />

      
      <glyph glyph-name="uniae" unicode="&#xae;" d="M233 662Q233 662 275 662Q317 662 368 612.50Q419 563 419 479.50Q419 396 366 344Q313 292 225.50 292Q138 292 89 342.50Q40 393 40 476Q40 559 94.50 610.50Q149 662 233 662M228.50 314Q228.50 314 266.75 314Q305 314 349.50 358Q394 402 394 478Q394 554 348 597.50Q302 641 229.50 641Q157 641 111.50 596Q66 551 66 475Q66 399 109 356.50Q152 314 228.50 314M226 482L223 482L223 395L231 395L231 387L132 387L132 395L154 395L154 571L132 571L132 579L236 579Q275 579 293.50 570Q312 561 312 534Q312 492 248 487L248 486Q286 484 300 473.50Q314 463 314 439L314 416Q314 400 323 400Q337 400 341 434L349 433Q346 407 335 395.50Q324 384 295 384Q246 384 246 421L246 450Q246 469 242 475.50Q238 482 226 482M223 571L223 492L226 492Q242 492 247 501Q252 510 252 532Q252 554 247.50 562.50Q243 571 228 571L223 571Z"  horiz-adv-x="459" vert-adv-y="1000"  />

      
      <glyph glyph-name="uniaf" unicode="&#xaf;" d="M114 552L114 647L386 647L386 552L114 552Z"  horiz-adv-x="500" vert-adv-y="1000"  />

      
      <glyph glyph-name="unib0" unicode="&#xb0;" d="M99.50 693.50Q99.50 693.50 87.75 680.75Q76 668 76 627Q76 586 99 560.50Q122 535 164 535Q206 535 230 561Q254 587 254 628Q254 669 229.50 694Q205 719 164 719Q123 719 99.50 693.50M163 506Q163 506 133 506Q103 506 71.50 539.50Q40 573 40 625.50Q40 678 73.50 712.50Q107 747 166.50 747Q226 747 257.50 715Q289 683 289 629.50Q289 576 256 541Q223 506 163 506Z"  horiz-adv-x="329" vert-adv-y="1000"  />

      
      <glyph glyph-name="unib1" unicode="&#xb1;" d="M492 301L280 301L280 112L242 112L242 301L38 301L38 334L242 334L242 510L280 510L280 334L492 334L492 301M492 0L38 0L38 33L492 33L492 0Z"  horiz-adv-x="530" vert-adv-y="1000"  />

      
      <glyph glyph-name="unib2" unicode="&#xb2;" d="M50 724Q50 766 88.50 794.50Q127 823 198 823Q269 823 312 796Q355 769 355 714Q355 659 313 621Q271 583 145 516L107 496L267 496Q310 496 327.50 514.50Q345 533 353 571L368 571L361 394L57 394L57 478L121 529Q184 579 207 620.50Q230 662 230 714Q230 766 220.50 785.50Q211 805 183.50 805Q156 805 142.50 787Q129 769 140 743L160 743Q165 728 165 709.50Q165 691 149.50 677.50Q134 664 107.50 664Q81 664 65.50 681Q50 698 50 724Z"  horiz-adv-x="417" vert-adv-y="1000"  />

      
      <glyph glyph-name="unib3" unicode="&#xb3;" d="M203 819Q349 819 349 723Q349 684 316 658.50Q283 633 221 623L221 622Q298 617 334.50 587.50Q371 558 371 505.50Q371 453 322.50 419.50Q274 386 189 386Q49 386 49 474Q49 499 65 517Q81 535 107 535Q133 535 148.50 522Q164 509 164 492Q164 475 158 459L143 459Q137 447 137 434Q137 421 151 411.50Q165 402 187 402Q223 402 235 428.50Q247 455 247 504.50Q247 554 235.50 575.50Q224 597 200 608Q183 605 146 600L144 618Q198 623 213.50 642.50Q229 662 229 713Q229 764 220.50 784Q212 804 189 804Q146 804 146 768Q146 757 150 746L166 746Q172 730 172 713.50Q172 697 155.50 683.50Q139 670 113 670Q87 670 72.50 686.50Q58 703 58 728Q58 768 96 793.50Q134 819 203 819Z"  horiz-adv-x="422" vert-adv-y="1000"  />

      
      <glyph glyph-name="unib4" unicode="&#xb4;" d="M163 532L226 723L273 733Q304 740 320.50 725.50Q337 711 337 686.50Q337 662 308 636L174 525L163 532Z"  horiz-adv-x="500" vert-adv-y="1000"  />

      
      <glyph glyph-name="unib5" unicode="&#xb5;" d="M268 501L268 158Q268 63 284 47Q293 39 308 39Q338 39 362 78Q386 117 386 181L386 492L563 501L563 85Q563 42 592 42Q626 42 632 145L647 144Q643 56 614 23Q585-10 523.50-10Q462-10 429 17Q396 44 386 89Q370 45 337 17Q304-11 264.50-11Q225-11 196.50 5.50Q168 22 144 74L140 71L198-71Q202-81 210-100Q218-119 220.50-126Q223-133 227-144Q234-165 234-182.50Q234-200 214-214Q194-228 171-223L80-204L80 492L268 501Z"  horiz-adv-x="673" vert-adv-y="1000"  />

      
      <glyph glyph-name="unib6" unicode="&#xb6;" d="M377-82L377 175L358 175Q221 175 148 243.50Q75 312 75 433Q75 554 151.50 627Q228 700 371 700L598 700L598 681L533 681L533-13Q533-250 285-250Q193-250 155-211.50Q117-173 117-126.50Q117-80 143.50-54.50Q170-29 208.50-29Q247-29 266.50-50.50Q286-72 286-98Q286-124 280-148L251-148Q230-185 241-208Q252-231 292-231Q332-231 354.50-197.50Q377-164 377-82M407-93Q407-184 369-218Q504-188 504-4L504 681L407 681L407-93Z"  horiz-adv-x="628" vert-adv-y="1000"  />

      
      <glyph glyph-name="unib7" unicode="&#xb7;" d="M156.50 235Q156.50 235 134.75 235Q113 235 91.50 260.50Q70 286 70 322.50Q70 359 92.50 384Q115 409 156 409Q197 409 221 388Q245 367 245 325Q245 283 222.50 259Q200 235 156.50 235Z"  horiz-adv-x="300" vert-adv-y="1000"  />

      
      <glyph glyph-name="unib8" unicode="&#xb8;" d="M244 13L270 13L230-55Q251-52 263-52Q368-52 368-141Q368-182 335-213.50Q302-245 232-245Q186-245 157.50-226.50Q129-208 129-183Q129-158 141-146Q153-134 172-134Q206-134 218-172L192-192Q192-206 200-217.50Q208-229 226.50-229Q245-229 253.50-211.50Q262-194 262-157.50Q262-121 260-106Q257-70 230-70Q216-70 200-74L197-65L244 13Z"  horiz-adv-x="500" vert-adv-y="1000"  />

      
      <glyph glyph-name="unib9" unicode="&#xb9;" d="M160 791L88 783L86 802L230 821L301 821L301 413L369 413L369 394L91 394L91 413L160 413L160 791Z"  horiz-adv-x="425" vert-adv-y="1000"  />

      
      <glyph glyph-name="uniba" unicode="&#xba;" d="M295 541L295 601Q295 667 286 698Q277 729 245.50 729Q214 729 204 697.50Q194 666 194 598L194 542Q194 472 203.50 441.50Q213 411 245 411Q277 411 286 438.50Q295 466 295 541M244 394Q146 394 96 439.50Q46 485 46 570.50Q46 656 98 701.50Q150 747 249 747Q443 747 443 575Q443 394 244 394Z"  horiz-adv-x="489" vert-adv-y="1000"  />

      
      <glyph glyph-name="unibb" unicode="&#xbb;" d="M431 187L254 49L246 56L331 219L247 393L255 401L414 271Q444 245 444 226.50Q444 208 431 187M255 187L78 49L70 56L155 219L71 393L79 401L238 271Q268 245 268 226.50Q268 208 255 187Z"  horiz-adv-x="494" vert-adv-y="1000"  />

      
      <glyph glyph-name="unibc" unicode="&#xbc;" d="M239 0L560 700L594 700L274 0L239 0M118 671L46 663L44 682L188 701L259 701L259 293L327 293L327 274L49 274L49 293L118 293L118 671M523 0L523 19L581 19L581 98L413 98L413 119L588 420L715 420L715 122L777 122L777 174L796 174L796 56L777 56L777 98L715 98L715 19L758 19L758 0L523 0M442 122L581 122L581 360L442 122Z"  horiz-adv-x="820" vert-adv-y="1000"  />

      
      <glyph glyph-name="unibd" unicode="&#xbd;" d="M228 0L549 700L583 700L263 0L228 0M107 671L35 663L33 682L177 701L248 701L248 293L316 293L316 274L38 274L38 293L107 293L107 671M469 330Q469 372 507.50 400.50Q546 429 617 429Q688 429 731 402Q774 375 774 320Q774 265 732 227Q690 189 564 122L526 102L686 102Q729 102 746.50 120.50Q764 139 772 177L787 177L780 0L476 0L476 84L540 135Q603 185 626 226.50Q649 268 649 320Q649 372 639.50 391.50Q630 411 602.50 411Q575 411 561.50 393Q548 375 559 349L579 349Q584 334 584 315.50Q584 297 568.50 283.50Q553 270 526.50 270Q500 270 484.50 287Q469 304 469 330Z"  horiz-adv-x="820" vert-adv-y="1000"  />

      
      <glyph glyph-name="unibe" unicode="&#xbe;" d="M254 0L575 700L609 700L289 0L254 0M538 0L538 19L596 19L596 98L428 98L428 119L603 420L730 420L730 122L792 122L792 174L811 174L811 56L792 56L792 98L730 98L730 19L773 19L773 0L538 0M457 122L596 122L596 360L457 122M182 699Q328 699 328 603Q328 564 295 538.50Q262 513 200 503L200 502Q277 497 313.50 467.50Q350 438 350 385.50Q350 333 301.50 299.50Q253 266 168 266Q28 266 28 354Q28 379 44 397Q60 415 86 415Q112 415 127.50 402Q143 389 143 372Q143 355 137 339L122 339Q116 327 116 314Q116 301 130 291.50Q144 282 166 282Q202 282 214 308.50Q226 335 226 384.50Q226 434 214.50 455.50Q203 477 179 488Q162 485 125 480L123 498Q177 503 192.50 522.50Q208 542 208 593Q208 644 199.50 664Q191 684 168 684Q125 684 125 648Q125 637 129 626L145 626Q151 610 151 593.50Q151 577 134.50 563.50Q118 550 92 550Q66 550 51.50 566.50Q37 583 37 608Q37 648 75 673.50Q113 699 182 699Z"  horiz-adv-x="820" vert-adv-y="1000"  />

      
      <glyph glyph-name="unibf" unicode="&#xbf;" d="M526-82Q526-147 467-191Q408-235 298.50-235Q189-235 129.50-193Q70-151 70-69Q70-15 96.50 26.50Q123 68 170 111L321 245L321 303L346 303L346 93Q346 76 335 65L273 2Q244-27 233-52.50Q222-78 222-119Q222-216 312-216Q355-216 375-193Q395-170 395-149Q395-128 389-112L357-112Q349-91 349-61.50Q349-32 374-10.50Q399 11 440 11Q481 11 503.50-15.50Q526-42 526-82M335.50 486Q335.50 486 354.25 486Q373 486 391.50 464.50Q410 443 410 410.50Q410 378 390 356.50Q370 335 335 335Q300 335 279 353.50Q258 372 258 408Q258 444 278 465Q298 486 335.50 486Z"  horiz-adv-x="580" vert-adv-y="1000"  />

      
      <glyph glyph-name="unic0" unicode="&#xc0;" d="M432 19L359 235L161 235L84 19L159 19L159 0L6 0L6 19L53 19L308 706L390 706L642 19L688 19L688 0L361 0L361 19L432 19M264 519L170 257L351 257L264 519M329 905L444 743L436 733L277 798Q233 816 233 856Q233 873 244.50 886Q256 899 281 901L329 905Z"  horiz-adv-x="694" vert-adv-y="1000"  />

      
      <glyph glyph-name="unic1" unicode="&#xc1;" d="M432 19L359 235L161 235L84 19L159 19L159 0L6 0L6 19L53 19L308 706L390 706L642 19L688 19L688 0L361 0L361 19L432 19M264 519L170 257L351 257L264 519M261 743L376 905L424 901Q449 899 460.50 886Q472 873 472 856Q472 816 428 798L269 733L261 743Z"  horiz-adv-x="694" vert-adv-y="1000"  />

      
      <glyph glyph-name="unic2" unicode="&#xc2;" d="M432 19L359 235L161 235L84 19L159 19L159 0L6 0L6 19L53 19L308 706L390 706L642 19L688 19L688 0L361 0L361 19L432 19M264 519L170 257L351 257L264 519M197 743L303 891Q331 907 358 907Q405 907 428 867L502 743L493 733L351 801L205 733L197 743Z"  horiz-adv-x="694" vert-adv-y="1000"  />

      
      <glyph glyph-name="unic3" unicode="&#xc3;" d="M432 19L359 235L161 235L84 19L159 19L159 0L6 0L6 19L53 19L308 706L390 706L642 19L688 19L688 0L361 0L361 19L432 19M264 519L170 257L351 257L264 519M522 891Q502 812 479.50 782Q457 752 424 752Q391 752 338 772Q285 792 266 792Q228 792 211 751L199 755Q222 827 236.50 852Q251 877 267 885Q283 893 308 893Q333 893 383.50 873Q434 853 451 853Q495 853 509 895L522 891Z"  horiz-adv-x="694" vert-adv-y="1000"  />

      
      <glyph glyph-name="unic4" unicode="&#xc4;" d="M432 19L359 235L161 235L84 19L159 19L159 0L6 0L6 19L53 19L308 706L390 706L642 19L688 19L688 0L361 0L361 19L432 19M264 519L170 257L351 257L264 519M389 768Q389 768 380 779Q371 790 371 821Q371 852 390.50 873Q410 894 444.50 894Q479 894 499.50 875.50Q520 857 520 822Q520 787 500.50 766.50Q481 746 444 746Q407 746 389 768M196 768Q196 768 187 779Q178 790 178 821Q178 852 197.50 873Q217 894 251.50 894Q286 894 306.50 875.50Q327 857 327 822Q327 787 307.50 766.50Q288 746 251 746Q214 746 196 768Z"  horiz-adv-x="694" vert-adv-y="1000"  />

      
      <glyph glyph-name="unic5" unicode="&#xc5;" d="M432 19L359 235L161 235L84 19L159 19L159 0L6 0L6 19L53 19L308 706L390 706L642 19L688 19L688 0L361 0L361 19L432 19M264 519L170 257L351 257L264 519M277 823Q277 750 349 750Q384 750 402 770.50Q420 791 420 822Q420 853 402 873.50Q384 894 347.50 894Q311 894 294 873.50Q277 853 277 823M346.50 726Q346.50 726 321.75 726Q297 726 272 752Q247 778 247 821Q247 864 273.50 891Q300 918 349 918Q398 918 423.50 892.50Q449 867 449 823.50Q449 780 422.50 753Q396 726 346.50 726Z"  horiz-adv-x="694" vert-adv-y="1000"  />

      
      <glyph glyph-name="unic6" unicode="&#xc6;" d="M376 678L376 700L950 700L960 502L942 502Q900 601 855.50 639.50Q811 678 728 678L684 678L684 362L718 362Q765 362 797 397.50Q829 433 842 493L857 493L857 197L840 197Q822 272 791.50 304Q761 336 708 336L684 336L684 22L722 22Q814 22 878.50 77Q943 132 967 218L987 218L979 0L430 0L430 22L489 22L489 339L279 339L85 19L160 19L160 0L6 0L6 19L53 19L452 678L376 678M483 678L291 363L489 363L489 678L483 678Z"  horiz-adv-x="1033" vert-adv-y="1000"  />

      
      <glyph glyph-name="unic7" unicode="&#xc7;" d="M400 691Q245 691 245 392L245 313Q245 171 286 90.50Q327 10 407 10Q517 10 609 224L627 224L620 1L609 1Q603 12 598 16.50Q593 21 582.50 21Q572 21 516 7Q460-7 405-9L376-59Q397-56 409-56Q514-56 514-145Q514-186 481-217.50Q448-249 378-249Q332-249 303.50-230.50Q275-212 275-187Q275-162 287-150Q299-138 318-138Q352-138 364-176L338-196Q338-210 346-221.50Q354-233 372.50-233Q391-233 399.50-215.50Q408-198 408-161.50Q408-125 406-110Q403-74 376-74Q362-74 346-78L343-69L378-10Q217-8 129 79.50Q41 167 41 343Q41 519 134.50 615Q228 711 386 711Q447 711 505.50 695.50Q564 680 574 680Q584 680 589 684.50Q594 689 600 700L611 700L619 483L601 483Q556 584 508.50 637.50Q461 691 400 691Z"  horiz-adv-x="690" vert-adv-y="1000"  />

      
      <glyph glyph-name="unic8" unicode="&#xc8;" d="M21 700L541 700L551 502L533 502Q491 603 445 640.50Q399 678 310 678L275 678L275 369L309 369Q356 369 388 404.50Q420 440 433 500L448 500L448 204L431 204Q413 279 382.50 311Q352 343 299 343L275 343L275 22L313 22Q405 22 469.50 77Q534 132 558 218L578 218L570 0L21 0L21 22L80 22L80 678L21 678L21 700M275 905L390 743L382 733L223 798Q179 816 179 856Q179 873 190.50 886Q202 899 227 901L275 905Z"  horiz-adv-x="624" vert-adv-y="1000"  />

      
      <glyph glyph-name="unic9" unicode="&#xc9;" d="M21 700L541 700L551 502L533 502Q491 603 445 640.50Q399 678 310 678L275 678L275 369L309 369Q356 369 388 404.50Q420 440 433 500L448 500L448 204L431 204Q413 279 382.50 311Q352 343 299 343L275 343L275 22L313 22Q405 22 469.50 77Q534 132 558 218L578 218L570 0L21 0L21 22L80 22L80 678L21 678L21 700M207 743L322 905L370 901Q395 899 406.50 886Q418 873 418 856Q418 816 374 798L215 733L207 743Z"  horiz-adv-x="624" vert-adv-y="1000"  />

      
      <glyph glyph-name="unica" unicode="&#xca;" d="M21 700L541 700L551 502L533 502Q491 603 445 640.50Q399 678 310 678L275 678L275 369L309 369Q356 369 388 404.50Q420 440 433 500L448 500L448 204L431 204Q413 279 382.50 311Q352 343 299 343L275 343L275 22L313 22Q405 22 469.50 77Q534 132 558 218L578 218L570 0L21 0L21 22L80 22L80 678L21 678L21 700M143 743L249 891Q277 907 304 907Q351 907 374 867L448 743L439 733L297 801L151 733L143 743Z"  horiz-adv-x="624" vert-adv-y="1000"  />

      
      <glyph glyph-name="unicb" unicode="&#xcb;" d="M21 700L541 700L551 502L533 502Q491 603 445 640.50Q399 678 310 678L275 678L275 369L309 369Q356 369 388 404.50Q420 440 433 500L448 500L448 204L431 204Q413 279 382.50 311Q352 343 299 343L275 343L275 22L313 22Q405 22 469.50 77Q534 132 558 218L578 218L570 0L21 0L21 22L80 22L80 678L21 678L21 700M335 768Q335 768 326 779Q317 790 317 821Q317 852 336.50 873Q356 894 390.50 894Q425 894 445.50 875.50Q466 857 466 822Q466 787 446.50 766.50Q427 746 390 746Q353 746 335 768M142 768Q142 768 133 779Q124 790 124 821Q124 852 143.50 873Q163 894 197.50 894Q232 894 252.50 875.50Q273 857 273 822Q273 787 253.50 766.50Q234 746 197 746Q160 746 142 768Z"  horiz-adv-x="624" vert-adv-y="1000"  />

      
      <glyph glyph-name="unicc" unicode="&#xcc;" d="M25 700L330 700L330 681L275 681L275 19L330 19L330 0L25 0L25 19L80 19L80 681L25 681L25 700M157 905L272 743L264 733L105 798Q61 816 61 856Q61 873 72.50 886Q84 899 109 901L157 905Z"  horiz-adv-x="355" vert-adv-y="1000"  />

      
      <glyph glyph-name="unicd" unicode="&#xcd;" d="M25 700L330 700L330 681L275 681L275 19L330 19L330 0L25 0L25 19L80 19L80 681L25 681L25 700M89 743L204 905L252 901Q277 899 288.50 886Q300 873 300 856Q300 816 256 798L97 733L89 743Z"  horiz-adv-x="355" vert-adv-y="1000"  />

      
      <glyph glyph-name="unice" unicode="&#xce;" d="M25 700L330 700L330 681L275 681L275 19L330 19L330 0L25 0L25 19L80 19L80 681L25 681L25 700M25 743L131 891Q159 907 186 907Q233 907 256 867L330 743L321 733L179 801L33 733L25 743Z"  horiz-adv-x="355" vert-adv-y="1000"  />

      
      <glyph glyph-name="unicf" unicode="&#xcf;" d="M25 700L330 700L330 681L275 681L275 19L330 19L330 0L25 0L25 19L80 19L80 681L25 681L25 700M217 768Q217 768 208 779Q199 790 199 821Q199 852 218.50 873Q238 894 272.50 894Q307 894 327.50 875.50Q348 857 348 822Q348 787 328.50 766.50Q309 746 272 746Q235 746 217 768M24 768Q24 768 15 779Q6 790 6 821Q6 852 25.50 873Q45 894 79.50 894Q114 894 134.50 875.50Q155 857 155 822Q155 787 135.50 766.50Q116 746 79 746Q42 746 24 768Z"  horiz-adv-x="355" vert-adv-y="1000"  />

      
      <glyph glyph-name="unid0" unicode="&#xd0;" d="M19 359L19 385L95 385L95 681L29 681L29 700L338 700Q530 700 626 621.50Q722 543 722 362Q722 156 606 75Q499 0 312 0L29 0L29 19L95 19L95 359L19 359M290 19L328 19Q429 19 472.50 90.50Q516 162 516 330L516 388Q516 613 430 659Q389 681 314 681L290 681L290 385L419 385L419 359L290 359L290 19Z"  horiz-adv-x="763" vert-adv-y="1000"  />

      
      <glyph glyph-name="unid1" unicode="&#xd1;" d="M590 681L590 0L450 0L107 647L107 19L162 19L162 0L25 0L25 19L80 19L80 681L25 681L25 700L301 700L563 198L563 681L508 681L508 700L645 700L645 681L590 681M515 891Q495 812 472.50 782Q450 752 417 752Q384 752 331 772Q278 792 259 792Q221 792 204 751L192 755Q215 827 229.50 852Q244 877 260 885Q276 893 301 893Q326 893 376.50 873Q427 853 444 853Q488 853 502 895L515 891Z"  horiz-adv-x="670" vert-adv-y="1000"  />

      
      <glyph glyph-name="unid2" unicode="&#xd2;" d="M501 309L501 383Q501 566 483 614Q463 669 426 682Q405 690 375 690Q345 690 323.50 682Q302 674 288 654Q274 634 265.50 612Q257 590 252 550Q246 492 246 379L246 307Q246 185 255.50 133.50Q265 82 279 60Q310 11 375 11Q454 11 477.50 77.50Q501 144 501 309M373-10Q373-10 289.50-10Q206-10 123.50 80.50Q41 171 41 342.50Q41 514 129.50 612.50Q218 711 380 711Q542 711 624.50 617.50Q707 524 707 352Q707 180 623.50 85Q540-10 373-10M356 905L471 743L463 733L304 798Q260 816 260 856Q260 873 271.50 886Q283 899 308 901L356 905Z"  horiz-adv-x="748" vert-adv-y="1000"  />

      
      <glyph glyph-name="unid3" unicode="&#xd3;" d="M501 309L501 383Q501 566 483 614Q463 669 426 682Q405 690 375 690Q345 690 323.50 682Q302 674 288 654Q274 634 265.50 612Q257 590 252 550Q246 492 246 379L246 307Q246 185 255.50 133.50Q265 82 279 60Q310 11 375 11Q454 11 477.50 77.50Q501 144 501 309M373-10Q373-10 289.50-10Q206-10 123.50 80.50Q41 171 41 342.50Q41 514 129.50 612.50Q218 711 380 711Q542 711 624.50 617.50Q707 524 707 352Q707 180 623.50 85Q540-10 373-10M288 743L403 905L451 901Q476 899 487.50 886Q499 873 499 856Q499 816 455 798L296 733L288 743Z"  horiz-adv-x="748" vert-adv-y="1000"  />

      
      <glyph glyph-name="unid4" unicode="&#xd4;" d="M501 309L501 383Q501 566 483 614Q463 669 426 682Q405 690 375 690Q345 690 323.50 682Q302 674 288 654Q274 634 265.50 612Q257 590 252 550Q246 492 246 379L246 307Q246 185 255.50 133.50Q265 82 279 60Q310 11 375 11Q454 11 477.50 77.50Q501 144 501 309M373-10Q373-10 289.50-10Q206-10 123.50 80.50Q41 171 41 342.50Q41 514 129.50 612.50Q218 711 380 711Q542 711 624.50 617.50Q707 524 707 352Q707 180 623.50 85Q540-10 373-10M224 743L330 891Q358 907 385 907Q432 907 455 867L529 743L520 733L378 801L232 733L224 743Z"  horiz-adv-x="748" vert-adv-y="1000"  />

      
      <glyph glyph-name="unid5" unicode="&#xd5;" d="M501 309L501 383Q501 566 483 614Q463 669 426 682Q405 690 375 690Q345 690 323.50 682Q302 674 288 654Q274 634 265.50 612Q257 590 252 550Q246 492 246 379L246 307Q246 185 255.50 133.50Q265 82 279 60Q310 11 375 11Q454 11 477.50 77.50Q501 144 501 309M373-10Q373-10 289.50-10Q206-10 123.50 80.50Q41 171 41 342.50Q41 514 129.50 612.50Q218 711 380 711Q542 711 624.50 617.50Q707 524 707 352Q707 180 623.50 85Q540-10 373-10M549 891Q529 812 506.50 782Q484 752 451 752Q418 752 365 772Q312 792 293 792Q255 792 238 751L226 755Q249 827 263.50 852Q278 877 294 885Q310 893 335 893Q360 893 410.50 873Q461 853 478 853Q522 853 536 895L549 891Z"  horiz-adv-x="748" vert-adv-y="1000"  />

      
      <glyph glyph-name="unid6" unicode="&#xd6;" d="M501 309L501 383Q501 566 483 614Q463 669 426 682Q405 690 375 690Q345 690 323.50 682Q302 674 288 654Q274 634 265.50 612Q257 590 252 550Q246 492 246 379L246 307Q246 185 255.50 133.50Q265 82 279 60Q310 11 375 11Q454 11 477.50 77.50Q501 144 501 309M373-10Q373-10 289.50-10Q206-10 123.50 80.50Q41 171 41 342.50Q41 514 129.50 612.50Q218 711 380 711Q542 711 624.50 617.50Q707 524 707 352Q707 180 623.50 85Q540-10 373-10M416 768Q416 768 407 779Q398 790 398 821Q398 852 417.50 873Q437 894 471.50 894Q506 894 526.50 875.50Q547 857 547 822Q547 787 527.50 766.50Q508 746 471 746Q434 746 416 768M223 768Q223 768 214 779Q205 790 205 821Q205 852 224.50 873Q244 894 278.50 894Q313 894 333.50 875.50Q354 857 354 822Q354 787 334.50 766.50Q315 746 278 746Q241 746 223 768Z"  horiz-adv-x="748" vert-adv-y="1000"  />

      
      <glyph glyph-name="unid7" unicode="&#xd7;" d="M437 464L287 315L435 167L411 144L264 291L116 143L92 167L240 315L93 463L116 487L264 339L413 488L437 464Z"  horiz-adv-x="530" vert-adv-y="1000"  />

      
      <glyph glyph-name="unid8" unicode="&#xd8;" d="M41 339Q41 514 129.50 612.50Q218 711 383 711Q442 711 488 698L515 769L540 759L514 690Q707 622 707 352Q707 180 623.50 85Q540-10 371-10Q308-10 254 4L225-74L200-64L229 12Q41 80 41 339M501 309L501 383Q501 552 484 610L277 64Q306 11 380 11Q454 11 477.50 77.50Q501 144 501 309M246 307Q246 158 262 101L468 645Q441 690 375 690Q313 690 288 654Q260 613 254 562Q246 492 246 379L246 307Z"  horiz-adv-x="748" vert-adv-y="1000"  />

      
      <glyph glyph-name="unid9" unicode="&#xd9;" d="M271 213Q271 121 302.50 72Q334 23 416 23Q498 23 542 74Q586 125 586 229L586 681L521 681L521 700L667 700L667 681L612 681L612 236Q612 112 557 51Q502-10 362.50-10Q223-10 149.50 48Q76 106 76 247L76 681L21 681L21 700L336 700L336 681L271 681L271 213M350 905L465 743L457 733L298 798Q254 816 254 856Q254 873 265.50 886Q277 899 302 901L350 905Z"  horiz-adv-x="683" vert-adv-y="1000"  />

      
      <glyph glyph-name="unida" unicode="&#xda;" d="M271 213Q271 121 302.50 72Q334 23 416 23Q498 23 542 74Q586 125 586 229L586 681L521 681L521 700L667 700L667 681L612 681L612 236Q612 112 557 51Q502-10 362.50-10Q223-10 149.50 48Q76 106 76 247L76 681L21 681L21 700L336 700L336 681L271 681L271 213M282 743L397 905L445 901Q470 899 481.50 886Q493 873 493 856Q493 816 449 798L290 733L282 743Z"  horiz-adv-x="683" vert-adv-y="1000"  />

      
      <glyph glyph-name="unidb" unicode="&#xdb;" d="M271 213Q271 121 302.50 72Q334 23 416 23Q498 23 542 74Q586 125 586 229L586 681L521 681L521 700L667 700L667 681L612 681L612 236Q612 112 557 51Q502-10 362.50-10Q223-10 149.50 48Q76 106 76 247L76 681L21 681L21 700L336 700L336 681L271 681L271 213M218 743L324 891Q352 907 379 907Q426 907 449 867L523 743L514 733L372 801L226 733L218 743Z"  horiz-adv-x="683" vert-adv-y="1000"  />

      
      <glyph glyph-name="unidc" unicode="&#xdc;" d="M271 213Q271 121 302.50 72Q334 23 416 23Q498 23 542 74Q586 125 586 229L586 681L521 681L521 700L667 700L667 681L612 681L612 236Q612 112 557 51Q502-10 362.50-10Q223-10 149.50 48Q76 106 76 247L76 681L21 681L21 700L336 700L336 681L271 681L271 213M410 768Q410 768 401 779Q392 790 392 821Q392 852 411.50 873Q431 894 465.50 894Q500 894 520.50 875.50Q541 857 541 822Q541 787 521.50 766.50Q502 746 465 746Q428 746 410 768M217 768Q217 768 208 779Q199 790 199 821Q199 852 218.50 873Q238 894 272.50 894Q307 894 327.50 875.50Q348 857 348 822Q348 787 328.50 766.50Q309 746 272 746Q235 746 217 768Z"  horiz-adv-x="683" vert-adv-y="1000"  />

      
      <glyph glyph-name="unidd" unicode="&#xdd;" d="M397 371L539 684L438 684L438 700L635 700L635 684L569 684L418 350L418 19L479 19L479 0L162 0L162 19L223 19L223 331L53 684L6 684L6 700L326 700L326 684L261 684L397 371M261 743L376 905L424 901Q449 899 460.50 886Q472 873 472 856Q472 816 428 798L269 733L261 743Z"  horiz-adv-x="641" vert-adv-y="1000"  />

      
      <glyph glyph-name="unide" unicode="&#xde;" d="M275 681L275 566L309 566Q460 566 534 522.50Q608 479 608 367Q608 243 518 196Q434 153 283 153L275 153L275 19L400 19L400 0L15 0L15 19L80 19L80 681L15 681L15 700L400 700L400 681L275 681M275 547L275 172L296 172Q356 172 379 213Q402 254 402 346L402 394Q402 479 380.50 513Q359 547 302 547L275 547Z"  horiz-adv-x="634" vert-adv-y="1000"  />

      
      <glyph glyph-name="unidf" unicode="&#xdf;" d="M307-10L307 169L319 169Q369 12 480 12Q572 12 572 78Q572 109 546 129Q520 149 482.50 162.50Q445 176 407.50 193.50Q370 211 344 248Q318 285 318 333Q318 381 336.50 416.50Q355 452 381.50 478Q408 504 434 529Q497 590 497 643.50Q497 697 463 724Q429 751 363.50 751Q298 751 274.50 712Q251 673 251 604L251 0L-11 0L-11 18L65 18L65 469Q65 634 141.50 703.50Q218 773 353 773Q447 773 486.50 737Q526 701 526 649Q526 613 507.50 579.50Q489 546 467.50 526Q446 506 427.50 480Q409 454 409 431Q409 408 427.50 391Q446 374 474 364Q502 354 534 338Q566 322 594 303.50Q622 285 640.50 248Q659 211 659 161Q659 85 608.50 37.50Q558-10 495-10Q432-10 381 19Q360 31 350 31Q328 31 319-10L307-10Z"  horiz-adv-x="674" vert-adv-y="1000"  />

      
      <glyph glyph-name="unie0" unicode="&#xe0;" d="M250 235L279 235L279 312Q279 407 268.50 439.50Q258 472 228 472Q210 472 195.50 462.50Q181 453 181 436.50Q181 420 187 403L212 403Q220 382 220 352.50Q220 323 195 301.50Q170 280 132 280Q46 280 46 363Q46 486 255 486Q374 486 419.50 445.50Q465 405 465 297L465 94Q465 42 494 42Q528 42 534 145L549 144Q545 56 516 23Q487-10 421-10Q301-10 283 64Q270 26 244 8Q218-10 168-10Q20-10 20 111Q20 182 76.50 208.50Q133 235 250 235M210 112Q210 60 215.50 45Q221 30 236.50 30Q252 30 265.50 55.50Q279 81 279 126L279 219L272 219Q210 219 210 128L210 112M263 738L326 547L315 540L181 651Q152 677 152 701.50Q152 726 168.50 740.50Q185 755 216 748L263 738Z"  horiz-adv-x="549" vert-adv-y="1000"  />

      
      <glyph glyph-name="unie1" unicode="&#xe1;" d="M250 235L279 235L279 312Q279 407 268.50 439.50Q258 472 228 472Q210 472 195.50 462.50Q181 453 181 436.50Q181 420 187 403L212 403Q220 382 220 352.50Q220 323 195 301.50Q170 280 132 280Q46 280 46 363Q46 486 255 486Q374 486 419.50 445.50Q465 405 465 297L465 94Q465 42 494 42Q528 42 534 145L549 144Q545 56 516 23Q487-10 421-10Q301-10 283 64Q270 26 244 8Q218-10 168-10Q20-10 20 111Q20 182 76.50 208.50Q133 235 250 235M210 112Q210 60 215.50 45Q221 30 236.50 30Q252 30 265.50 55.50Q279 81 279 126L279 219L272 219Q210 219 210 128L210 112M188 547L251 738L298 748Q329 755 345.50 740.50Q362 726 362 701.50Q362 677 333 651L199 540L188 547Z"  horiz-adv-x="549" vert-adv-y="1000"  />

      
      <glyph glyph-name="unie2" unicode="&#xe2;" d="M250 235L279 235L279 312Q279 407 268.50 439.50Q258 472 228 472Q210 472 195.50 462.50Q181 453 181 436.50Q181 420 187 403L212 403Q220 382 220 352.50Q220 323 195 301.50Q170 280 132 280Q46 280 46 363Q46 486 255 486Q374 486 419.50 445.50Q465 405 465 297L465 94Q465 42 494 42Q528 42 534 145L549 144Q545 56 516 23Q487-10 421-10Q301-10 283 64Q270 26 244 8Q218-10 168-10Q20-10 20 111Q20 182 76.50 208.50Q133 235 250 235M210 112Q210 60 215.50 45Q221 30 236.50 30Q252 30 265.50 55.50Q279 81 279 126L279 219L272 219Q210 219 210 128L210 112M121 532L210 722Q240 738 269 738Q314 738 333 690L394 531L383 524L258 628L133 523L121 532Z"  horiz-adv-x="549" vert-adv-y="1000"  />

      
      <glyph glyph-name="unie3" unicode="&#xe3;" d="M250 235L279 235L279 312Q279 407 268.50 439.50Q258 472 228 472Q210 472 195.50 462.50Q181 453 181 436.50Q181 420 187 403L212 403Q220 382 220 352.50Q220 323 195 301.50Q170 280 132 280Q46 280 46 363Q46 486 255 486Q374 486 419.50 445.50Q465 405 465 297L465 94Q465 42 494 42Q528 42 534 145L549 144Q545 56 516 23Q487-10 421-10Q301-10 283 64Q270 26 244 8Q218-10 168-10Q20-10 20 111Q20 182 76.50 208.50Q133 235 250 235M210 112Q210 60 215.50 45Q221 30 236.50 30Q252 30 265.50 55.50Q279 81 279 126L279 219L272 219Q210 219 210 128L210 112M433 710Q395 563 326 563Q292 563 239 583Q186 603 167 603Q129 603 112 562L100 566Q123 641 148 676.50Q173 712 217 712Q244 712 294.50 692Q345 672 362 672Q406 672 420 714L433 710Z"  horiz-adv-x="549" vert-adv-y="1000"  />

      
      <glyph glyph-name="unie4" unicode="&#xe4;" d="M250 235L279 235L279 312Q279 407 268.50 439.50Q258 472 228 472Q210 472 195.50 462.50Q181 453 181 436.50Q181 420 187 403L212 403Q220 382 220 352.50Q220 323 195 301.50Q170 280 132 280Q46 280 46 363Q46 486 255 486Q374 486 419.50 445.50Q465 405 465 297L465 94Q465 42 494 42Q528 42 534 145L549 144Q545 56 516 23Q487-10 421-10Q301-10 283 64Q270 26 244 8Q218-10 168-10Q20-10 20 111Q20 182 76.50 208.50Q133 235 250 235M210 112Q210 60 215.50 45Q221 30 236.50 30Q252 30 265.50 55.50Q279 81 279 126L279 219L272 219Q210 219 210 128L210 112M297 580Q297 580 288 591Q279 602 279 633Q279 664 298.50 685Q318 706 352.50 706Q387 706 407.50 687.50Q428 669 428 634Q428 599 408.50 578.50Q389 558 352 558Q315 558 297 580M104 580Q104 580 95 591Q86 602 86 633Q86 664 105.50 685Q125 706 159.50 706Q194 706 214.50 687.50Q235 669 235 634Q235 599 215.50 578.50Q196 558 159 558Q122 558 104 580Z"  horiz-adv-x="549" vert-adv-y="1000"  />

      
      <glyph glyph-name="unie5" unicode="&#xe5;" d="M250 235L279 235L279 312Q279 407 268.50 439.50Q258 472 228 472Q210 472 195.50 462.50Q181 453 181 436.50Q181 420 187 403L212 403Q220 382 220 352.50Q220 323 195 301.50Q170 280 132 280Q46 280 46 363Q46 486 255 486Q374 486 419.50 445.50Q465 405 465 297L465 94Q465 42 494 42Q528 42 534 145L549 144Q545 56 516 23Q487-10 421-10Q301-10 283 64Q270 26 244 8Q218-10 168-10Q20-10 20 111Q20 182 76.50 208.50Q133 235 250 235M210 112Q210 60 215.50 45Q221 30 236.50 30Q252 30 265.50 55.50Q279 81 279 126L279 219L272 219Q210 219 210 128L210 112M186 632Q186 559 258 559Q293 559 311 579.50Q329 600 329 631Q329 662 311 682.50Q293 703 256.50 703Q220 703 203 682.50Q186 662 186 632M255.50 535Q255.50 535 230.75 535Q206 535 181 561Q156 587 156 630Q156 673 182.50 700Q209 727 258 727Q307 727 332.50 701.50Q358 676 358 632.50Q358 589 331.50 562Q305 535 255.50 535Z"  horiz-adv-x="549" vert-adv-y="1000"  />

      
      <glyph glyph-name="unie6" unicode="&#xe6;" d="M279 235L279 312Q279 407 268.50 439.50Q258 472 228 472Q210 472 195.50 462.50Q181 453 181 436.50Q181 420 187 403L212 403Q220 382 220 352.50Q220 323 195 301.50Q170 280 132 280Q46 280 46 363Q46 424 98 455Q150 486 237 486Q346 486 389 423Q436 486 541 486Q755 486 746 258L464 258L464 219Q464 121 489 71Q514 21 576 21Q692 21 728 145L746 142Q727 70 677.50 30Q628-10 529-10Q390-10 328 70Q294-10 173-10Q20-10 20 111Q20 182 76.50 208.50Q133 235 250 235L279 235M465 278L568 278L568 327Q568 408 558.50 437.50Q549 467 520.50 467Q492 467 478.50 435.50Q465 404 465 327L465 278M210 112Q210 62 219.50 46Q229 30 247.50 30Q266 30 285.50 44.50Q305 59 314 89Q282 141 279 218L279 219L272 219Q210 219 210 128L210 112Z"  horiz-adv-x="772" vert-adv-y="1000"  />

      
      <glyph glyph-name="unie7" unicode="&#xe7;" d="M290 468Q246 468 227 420Q208 372 208 261L208 209Q208 110 230 67Q252 24 311 24Q370 24 405 64Q440 104 450 155L468 153Q449 71 406 34Q361-3 281-9L254-55Q275-52 287-52Q392-52 392-141Q392-182 359-213.50Q326-245 256-245Q210-245 181.50-226.50Q153-208 153-183Q153-158 165-146Q177-134 196-134Q230-134 242-172L216-192Q216-206 224-217.50Q232-229 250.50-229Q269-229 277.50-211.50Q286-194 286-157.50Q286-121 284-106Q281-70 254-70Q240-70 224-74L221-65L254-10Q138-9 76.50 53Q15 115 15 235.50Q15 356 85.50 421Q156 486 282 486Q371 486 418 451.50Q465 417 465 365Q465 313 442.50 289Q420 265 380.50 265Q341 265 317 286Q293 307 293 348Q293 366 298 384L331 384Q338 404 338 420Q338 468 290 468Z"  horiz-adv-x="483" vert-adv-y="1000"  />

      
      <glyph glyph-name="unie8" unicode="&#xe8;" d="M273-10Q144-10 79.50 56.50Q15 123 15 241.50Q15 360 87.50 423Q160 486 272 486Q499 486 490 258L208 258L208 219Q208 121 233 71Q258 21 320 21Q436 21 472 145L490 142Q471 70 421.50 30Q372-10 273-10M209 278L312 278L312 327Q312 408 302.50 437.50Q293 467 264.50 467Q236 467 222.50 435.50Q209 404 209 327L209 278M273 738L336 547L325 540L191 651Q162 677 162 701.50Q162 726 178.50 740.50Q195 755 226 748L273 738Z"  horiz-adv-x="516" vert-adv-y="1000"  />

      
      <glyph glyph-name="unie9" unicode="&#xe9;" d="M273-10Q144-10 79.50 56.50Q15 123 15 241.50Q15 360 87.50 423Q160 486 272 486Q499 486 490 258L208 258L208 219Q208 121 233 71Q258 21 320 21Q436 21 472 145L490 142Q471 70 421.50 30Q372-10 273-10M312 278L312 327Q312 408 302.50 437.50Q293 467 264.50 467Q236 467 222.50 435.50Q209 404 209 327L209 278L312 278M198 547L261 738L308 748Q339 755 355.50 740.50Q372 726 372 701.50Q372 677 343 651L209 540L198 547Z"  horiz-adv-x="516" vert-adv-y="1000"  />

      
      <glyph glyph-name="uniea" unicode="&#xea;" d="M273-10Q144-10 79.50 56.50Q15 123 15 241.50Q15 360 87.50 423Q160 486 272 486Q499 486 490 258L208 258L208 219Q208 121 233 71Q258 21 320 21Q436 21 472 145L490 142Q471 70 421.50 30Q372-10 273-10M209 278L312 278L312 327Q312 408 302.50 437.50Q293 467 264.50 467Q236 467 222.50 435.50Q209 404 209 327L209 278M131 532L220 722Q250 738 279 738Q324 738 343 690L404 531L393 524L268 628L143 523L131 532Z"  horiz-adv-x="516" vert-adv-y="1000"  />

      
      <glyph glyph-name="unieb" unicode="&#xeb;" d="M273-10Q144-10 79.50 56.50Q15 123 15 241.50Q15 360 87.50 423Q160 486 272 486Q499 486 490 258L208 258L208 219Q208 121 233 71Q258 21 320 21Q436 21 472 145L490 142Q471 70 421.50 30Q372-10 273-10M209 278L312 278L312 327Q312 408 302.50 437.50Q293 467 264.50 467Q236 467 222.50 435.50Q209 404 209 327L209 278M307 580Q307 580 298 591Q289 602 289 633Q289 664 308.50 685Q328 706 362.50 706Q397 706 417.50 687.50Q438 669 438 634Q438 599 418.50 578.50Q399 558 362 558Q325 558 307 580M114 580Q114 580 105 591Q96 602 96 633Q96 664 115.50 685Q135 706 169.50 706Q204 706 224.50 687.50Q245 669 245 634Q245 599 225.50 578.50Q206 558 169 558Q132 558 114 580Z"  horiz-adv-x="516" vert-adv-y="1000"  />

      
      <glyph glyph-name="uniec" unicode="&#xec;" d="M147 738L210 547L199 540L65 651Q36 677 36 701.50Q36 726 52.50 740.50Q69 755 100 748L147 738M6 476L251 476L251 18L307 18L307 0L10 0L10 18L65 18L65 458L6 458L6 476Z"  horiz-adv-x="317" vert-adv-y="1000"  />

      
      <glyph glyph-name="unied" unicode="&#xed;" d="M85 547L148 738L195 748Q226 755 242.50 740.50Q259 726 259 701.50Q259 677 230 651L96 540L85 547M6 476L251 476L251 18L307 18L307 0L10 0L10 18L65 18L65 458L6 458L6 476Z"  horiz-adv-x="317" vert-adv-y="1000"  />

      
      <glyph glyph-name="uniee" unicode="&#xee;" d="M6 476L251 476L251 18L307 18L307 0L10 0L10 18L65 18L65 458L6 458L6 476M4 532L93 722Q123 738 152 738Q197 738 216 690L277 531L266 524L141 628L16 523L4 532Z"  horiz-adv-x="317" vert-adv-y="1000"  />

      
      <glyph glyph-name="unief" unicode="&#xef;" d="M187 580Q187 580 178 591Q169 602 169 633Q169 664 188.50 685Q208 706 242.50 706Q277 706 297.50 687.50Q318 669 318 634Q318 599 298.50 578.50Q279 558 242 558Q205 558 187 580M-6 580Q-6 580-15 591Q-24 602-24 633Q-24 664-4.50 685Q15 706 49.50 706Q84 706 104.50 687.50Q125 669 125 634Q125 599 105.50 578.50Q86 558 49 558Q12 558-6 580M6 476L251 476L251 18L307 18L307 0L10 0L10 18L65 18L65 458L6 458L6 476Z"  horiz-adv-x="317" vert-adv-y="1000"  />

      
      <glyph glyph-name="unif0" unicode="&#xf0;" d="M195 575L187 600L293 669Q227 750 89 749L91 765Q261 778 367 718L473 788L481 763L390 703Q540 598 540 332Q540 142 466 60Q438 29 390 9.50Q342-10 278-10Q150-10 85 53.50Q20 117 20 237.50Q20 358 81 426Q142 494 249 494Q332 494 360 431Q352 579 307 649L195 575M344 197L344 282Q344 376 332 422Q320 468 279.50 468Q239 468 226 421.50Q213 375 213 277L213 199Q213 99 225.50 53.50Q238 8 279 8Q320 8 332 49.50Q344 91 344 197Z"  horiz-adv-x="560" vert-adv-y="1000"  />

      
      <glyph glyph-name="unif1" unicode="&#xf1;" d="M10 476L251 476L251 384Q267 430 300 458Q333 486 400 486Q555 486 555 319L555 18L611 18L611 0L328 0L328 18L369 18L369 343Q369 403 361 420.50Q353 438 332 438Q300 438 275.50 396Q251 354 251 294L251 18L294 18L294 0L10 0L10 18L65 18L65 458L10 458L10 476M481 710Q443 563 374 563Q340 563 287 583Q234 603 215 603Q177 603 160 562L148 566Q171 641 196 676.50Q221 712 265 712Q292 712 342.50 692Q393 672 410 672Q454 672 468 714L481 710Z"  horiz-adv-x="616" vert-adv-y="1000"  />

      
      <glyph glyph-name="unif2" unicode="&#xf2;" d="M333 197L333 282Q333 379 322.50 423.50Q312 468 274 468Q252 468 238.50 455.50Q225 443 219 414Q210 369 210 277L210 199Q210 90 216.50 68Q223 46 230 32Q241 8 273 8Q312 8 324 53Q333 85 333 197M271-10Q146-10 82 54Q18 118 18 237.50Q18 357 86.50 421.50Q155 486 279 486Q403 486 464 426.50Q525 367 525 245Q525-10 271-10M280 738L343 547L332 540L198 651Q169 677 169 701.50Q169 726 185.50 740.50Q202 755 233 748L280 738Z"  horiz-adv-x="543" vert-adv-y="1000"  />

      
      <glyph glyph-name="unif3" unicode="&#xf3;" d="M333 197L333 282Q333 379 322.50 423.50Q312 468 274 468Q252 468 238.50 455.50Q225 443 219 414Q210 369 210 277L210 199Q210 90 216.50 68Q223 46 230 32Q241 8 273 8Q312 8 324 53Q333 85 333 197M271-10Q146-10 82 54Q18 118 18 237.50Q18 357 86.50 421.50Q155 486 279 486Q403 486 464 426.50Q525 367 525 245Q525-10 271-10M205 547L268 738L315 748Q346 755 362.50 740.50Q379 726 379 701.50Q379 677 350 651L216 540L205 547Z"  horiz-adv-x="543" vert-adv-y="1000"  />

      
      <glyph glyph-name="unif4" unicode="&#xf4;" d="M333 197L333 282Q333 379 322.50 423.50Q312 468 274 468Q252 468 238.50 455.50Q225 443 219 414Q210 369 210 277L210 199Q210 90 216.50 68Q223 46 230 32Q241 8 273 8Q312 8 324 53Q333 85 333 197M271-10Q146-10 82 54Q18 118 18 237.50Q18 357 86.50 421.50Q155 486 279 486Q403 486 464 426.50Q525 367 525 245Q525-10 271-10M138 532L227 722Q257 738 286 738Q331 738 350 690L411 531L400 524L275 628L150 523L138 532Z"  horiz-adv-x="543" vert-adv-y="1000"  />

      
      <glyph glyph-name="unif5" unicode="&#xf5;" d="M333 197L333 282Q333 379 322.50 423.50Q312 468 274 468Q252 468 238.50 455.50Q225 443 219 414Q210 369 210 277L210 199Q210 90 216.50 68Q223 46 230 32Q241 8 273 8Q312 8 324 53Q333 85 333 197M271-10Q146-10 82 54Q18 118 18 237.50Q18 357 86.50 421.50Q155 486 279 486Q403 486 464 426.50Q525 367 525 245Q525-10 271-10M450 710Q412 563 342 563Q309 563 256 583Q203 603 184 603Q146 603 129 562L117 566Q140 641 165 676.50Q190 712 234 712Q261 712 311.50 692Q362 672 379 672Q423 672 437 714L450 710Z"  horiz-adv-x="543" vert-adv-y="1000"  />

      
      <glyph glyph-name="unif6" unicode="&#xf6;" d="M333 197L333 282Q333 379 322.50 423.50Q312 468 274 468Q252 468 238.50 455.50Q225 443 219 414Q210 369 210 277L210 199Q210 90 216.50 68Q223 46 230 32Q241 8 273 8Q312 8 324 53Q333 85 333 197M271-10Q146-10 82 54Q18 118 18 237.50Q18 357 86.50 421.50Q155 486 279 486Q403 486 464 426.50Q525 367 525 245Q525-10 271-10M314 580Q314 580 305 591Q296 602 296 633Q296 664 315.50 685Q335 706 369.50 706Q404 706 424.50 687.50Q445 669 445 634Q445 599 425.50 578.50Q406 558 369 558Q332 558 314 580M121 580Q121 580 112 591Q103 602 103 633Q103 664 122.50 685Q142 706 176.50 706Q211 706 231.50 687.50Q252 669 252 634Q252 599 232.50 578.50Q213 558 176 558Q139 558 121 580Z"  horiz-adv-x="543" vert-adv-y="1000"  />

      
      <glyph glyph-name="unif7" unicode="&#xf7;" d="M226.50 406Q226.50 406 219.75 414Q213 422 213 446Q213 470 227.50 485.50Q242 501 268 501Q294 501 309.50 487.50Q325 474 325 447.50Q325 421 310.50 405.50Q296 390 268 390Q240 390 226.50 406M226.50 152Q226.50 152 219.75 160Q213 168 213 192Q213 216 227.50 231.50Q242 247 268 247Q294 247 309.50 233.50Q325 220 325 193.50Q325 167 310.50 151.50Q296 136 268 136Q240 136 226.50 152M492 301L38 301L38 334L492 334L492 301Z"  horiz-adv-x="530" vert-adv-y="1000"  />

      
      <glyph glyph-name="unif8" unicode="&#xf8;" d="M15 236Q15 359 82.50 422.50Q150 486 279 486Q311 486 344 481L370 550L392 542L367 477Q531 439 531 245Q531-10 273-10Q225-10 186-1L158-75L136-67L163 5Q15 53 15 236M339 197L339 282Q339 352 334 389L215 75Q227 8 275 8Q315 8 327 49.50Q339 91 339 197M208 199Q208 148 209 127L324 429Q308 468 276 468Q234 468 221 421.50Q208 375 208 277L208 199Z"  horiz-adv-x="546" vert-adv-y="1000"  />

      
      <glyph glyph-name="unif9" unicode="&#xf9;" d="M595 0L367 0L356 73Q340 33 308.50 11.50Q277-10 215-10Q60-10 60 157L60 458L4 458L4 476L246 476L246 133Q246 73 254.50 54Q263 35 288.50 35Q314 35 334 66Q354 97 354 152L354 458L308 458L308 476L540 476L540 18L595 18L595 0M289 738L352 547L341 540L207 651Q178 677 178 701.50Q178 726 194.50 740.50Q211 755 242 748L289 738Z"  horiz-adv-x="605" vert-adv-y="1000"  />

      
      <glyph glyph-name="unifa" unicode="&#xfa;" d="M595 0L367 0L356 73Q340 33 308.50 11.50Q277-10 215-10Q60-10 60 157L60 458L4 458L4 476L246 476L246 133Q246 73 254.50 54Q263 35 288.50 35Q314 35 334 66Q354 97 354 152L354 458L308 458L308 476L540 476L540 18L595 18L595 0M223 547L286 738L333 748Q364 755 380.50 740.50Q397 726 397 701.50Q397 677 368 651L234 540L223 547Z"  horiz-adv-x="605" vert-adv-y="1000"  />

      
      <glyph glyph-name="unifb" unicode="&#xfb;" d="M595 0L367 0L356 73Q340 33 308.50 11.50Q277-10 215-10Q60-10 60 157L60 458L4 458L4 476L246 476L246 133Q246 73 254.50 54Q263 35 288.50 35Q314 35 334 66Q354 97 354 152L354 458L308 458L308 476L540 476L540 18L595 18L595 0M156 532L245 722Q275 738 304 738Q349 738 368 690L429 531L418 524L293 628L168 523L156 532Z"  horiz-adv-x="605" vert-adv-y="1000"  />

      
      <glyph glyph-name="unifc" unicode="&#xfc;" d="M595 0L367 0L356 73Q340 33 308.50 11.50Q277-10 215-10Q60-10 60 157L60 458L4 458L4 476L246 476L246 133Q246 73 254.50 54Q263 35 288.50 35Q314 35 334 66Q354 97 354 152L354 458L308 458L308 476L540 476L540 18L595 18L595 0M332 580Q332 580 323 591Q314 602 314 633Q314 664 333.50 685Q353 706 387.50 706Q422 706 442.50 687.50Q463 669 463 634Q463 599 443.50 578.50Q424 558 387 558Q350 558 332 580M139 580Q139 580 130 591Q121 602 121 633Q121 664 140.50 685Q160 706 194.50 706Q229 706 249.50 687.50Q270 669 270 634Q270 599 250.50 578.50Q231 558 194 558Q157 558 139 580Z"  horiz-adv-x="605" vert-adv-y="1000"  />

      
      <glyph glyph-name="unifd" unicode="&#xfd;" d="M5 458L5 476L295 476L295 458L241 458L350 126L466 458L399 458L399 476L540 476L540 458L490 458L303-81Q270-175 229-212.50Q188-250 129-250Q70-250 36-223Q2-196 2-154Q2-112 24-90Q46-68 82-68Q165-68 165-137Q165-152 159-173L124-173Q116-196 122-211Q128-226 149-226Q190-226 222-185.50Q254-145 283-62L305 0L217 0L46 458L5 458M231 547L294 738L341 748Q372 755 388.50 740.50Q405 726 405 701.50Q405 677 376 651L242 540L231 547Z"  horiz-adv-x="532" vert-adv-y="1000"  />

      
      <glyph glyph-name="unife" unicode="&#xfe;" d="M375 269Q375 372 365 407.50Q355 443 326 443Q297 443 274 407Q251 371 251 308L251 122Q251 79 268.50 49Q286 19 318.50 19Q351 19 363 63Q375 107 375 217L375 269M65-220L65 732L16 732L16 750L251 750L251 400Q289 486 381 486Q568 486 568 237Q568 110 516.50 50Q465-10 362-10Q314-10 290 2Q266 14 251 39L251-220L380-220L380-238L10-238L10-220L65-220Z"  horiz-adv-x="588" vert-adv-y="1000"  />

      
      <glyph glyph-name="uniff" unicode="&#xff;" d="M5 458L5 476L295 476L295 458L241 458L350 126L466 458L399 458L399 476L540 476L540 458L490 458L303-81Q270-175 229-212.50Q188-250 129-250Q70-250 36-223Q2-196 2-154Q2-112 24-90Q46-68 82-68Q165-68 165-137Q165-152 159-173L124-173Q116-196 122-211Q128-226 149-226Q190-226 222-185.50Q254-145 283-62L305 0L217 0L46 458L5 458M340 580Q340 580 331 591Q322 602 322 633Q322 664 341.50 685Q361 706 395.50 706Q430 706 450.50 687.50Q471 669 471 634Q471 599 451.50 578.50Q432 558 395 558Q358 558 340 580M147 580Q147 580 138 591Q129 602 129 633Q129 664 148.50 685Q168 706 202.50 706Q237 706 257.50 687.50Q278 669 278 634Q278 599 258.50 578.50Q239 558 202 558Q165 558 147 580Z"  horiz-adv-x="532" vert-adv-y="1000"  />

      
      <glyph glyph-name="uni0100" unicode="&#x0100;" d="M432 19L359 235L161 235L84 19L159 19L159 0L6 0L6 19L53 19L308 706L390 706L642 19L688 19L688 0L361 0L361 19L432 19M264 519L170 257L351 257L264 519M213 770L213 867L485 867L485 770L213 770Z"  horiz-adv-x="694" vert-adv-y="1000"  />

      
      <glyph glyph-name="uni0101" unicode="&#x0101;" d="M250 235L279 235L279 312Q279 407 268.50 439.50Q258 472 228 472Q210 472 195.50 462.50Q181 453 181 436.50Q181 420 187 403L212 403Q220 382 220 352.50Q220 323 195 301.50Q170 280 132 280Q46 280 46 363Q46 486 255 486Q374 486 419.50 445.50Q465 405 465 297L465 94Q465 42 494 42Q528 42 534 145L549 144Q545 56 516 23Q487-10 421-10Q301-10 283 64Q270 26 244 8Q218-10 168-10Q20-10 20 111Q20 182 76.50 208.50Q133 235 250 235M210 112Q210 60 215.50 45Q221 30 236.50 30Q252 30 265.50 55.50Q279 81 279 126L279 219L272 219Q210 219 210 128L210 112M121 567L121 662L393 662L393 567L121 567Z"  horiz-adv-x="549" vert-adv-y="1000"  />

      
      <glyph glyph-name="uni0102" unicode="&#x0102;" d="M432 19L359 235L161 235L84 19L159 19L159 0L6 0L6 19L53 19L308 706L390 706L642 19L688 19L688 0L361 0L361 19L432 19M264 519L170 257L351 257L264 519M207 918L223 921Q237 881 265.50 867Q294 853 351.50 853Q409 853 436.50 866Q464 879 476 921L491 918Q473 746 349 746Q274 746 244 796Q216 841 207 918Z"  horiz-adv-x="694" vert-adv-y="1000"  />

      
      <glyph glyph-name="uni0103" unicode="&#x0103;" d="M250 235L279 235L279 312Q279 407 268.50 439.50Q258 472 228 472Q210 472 195.50 462.50Q181 453 181 436.50Q181 420 187 403L212 403Q220 382 220 352.50Q220 323 195 301.50Q170 280 132 280Q46 280 46 363Q46 486 255 486Q374 486 419.50 445.50Q465 405 465 297L465 94Q465 42 494 42Q528 42 534 145L549 144Q545 56 516 23Q487-10 421-10Q301-10 283 64Q270 26 244 8Q218-10 168-10Q20-10 20 111Q20 182 76.50 208.50Q133 235 250 235M210 112Q210 60 215.50 45Q221 30 236.50 30Q252 30 265.50 55.50Q279 81 279 126L279 219L272 219Q210 219 210 128L210 112M115 721L131 724Q145 684 173.50 670Q202 656 259.50 656Q317 656 344.50 669Q372 682 384 724L399 721Q381 541 257 541Q181 541 152 594Q126 640 115 721Z"  horiz-adv-x="549" vert-adv-y="1000"  />

      
      <glyph glyph-name="uni0104" unicode="&#x0104;" d="M432 19L359 235L161 235L84 19L159 19L159 0L6 0L6 19L53 19L308 706L390 706L642 19L688 19L688 0L577 0Q515-51 515-147Q515-184 522-197Q529-210 551-210Q573-210 602-167L615-175Q601-198 589-212.50Q577-227 552-239Q527-251 489-251Q451-251 423-230Q395-209 395-167.50Q395-126 417-96Q439-66 505-26L547 0L361 0L361 19L432 19M264 519L170 257L351 257L264 519Z"  horiz-adv-x="694" vert-adv-y="1000"  />

      
      <glyph glyph-name="uni0105" unicode="&#x0105;" d="M445-9L421-10Q301-10 283 64Q270 26 244 8Q218-10 168-10Q20-10 20 111Q20 182 76.50 208.50Q133 235 250 235L279 235L279 312Q279 407 268.50 439.50Q258 472 228 472Q210 472 195.50 462.50Q181 453 181 436.50Q181 420 187 403L212 403Q220 382 220 352.50Q220 323 195 301.50Q170 280 132 280Q46 280 46 363Q46 486 255 486Q374 486 419.50 445.50Q465 405 465 297L465 94Q465 42 494 42Q528 42 534 145L549 144Q545 37 498 5Q427-43 427-147Q427-184 434-197Q441-210 463-210Q485-210 514-167L527-175Q513-198 501-212.50Q489-227 464-239Q439-251 401-251Q363-251 335-230Q307-209 307-167.50Q307-126 329-96Q351-66 417-26L445-9M210 112Q210 60 215.50 45Q221 30 236.50 30Q252 30 265.50 55.50Q279 81 279 126L279 219L272 219Q210 219 210 128L210 112Z"  horiz-adv-x="549" vert-adv-y="1000"  />

      
      <glyph glyph-name="uni0106" unicode="&#x0106;" d="M400 691Q245 691 245 392L245 313Q245 171 286 90.50Q327 10 407 10Q517 10 609 224L627 224L620 1L609 1Q603 12 598 16.50Q593 21 583.50 21Q574 21 511 5.50Q448-10 383-10Q220-10 130.50 78Q41 166 41 342.50Q41 519 134.50 615Q228 711 386 711Q447 711 505.50 695.50Q564 680 574 680Q584 680 589 684.50Q594 689 600 700L611 700L619 483L601 483Q556 584 508.50 637.50Q461 691 400 691M290 743L405 905L453 901Q478 899 489.50 886Q501 873 501 856Q501 816 457 798L298 733L290 743Z"  horiz-adv-x="690" vert-adv-y="1000"  />

      
      <glyph glyph-name="uni0107" unicode="&#x0107;" d="M290 468Q246 468 227 420Q208 372 208 261L208 209Q208 110 230 67Q252 24 311 24Q370 24 405 64Q440 104 450 155L468 153Q449 67 398 29Q346-10 255-10Q139-10 77 52.50Q15 115 15 235.50Q15 356 85.50 421Q156 486 282 486Q371 486 418 451.50Q465 417 465 365Q465 313 442.50 289Q420 265 380.50 265Q341 265 317 286Q293 307 293 348Q293 366 298 384L331 384Q338 404 338 420Q338 468 290 468M194 547L257 738L304 748Q335 755 351.50 740.50Q368 726 368 701.50Q368 677 339 651L205 540L194 547Z"  horiz-adv-x="483" vert-adv-y="1000"  />

      
      <glyph glyph-name="uni0108" unicode="&#x0108;" d="M400 691Q245 691 245 392L245 313Q245 171 286 90.50Q327 10 407 10Q517 10 609 224L627 224L620 1L609 1Q603 12 598 16.50Q593 21 583.50 21Q574 21 511 5.50Q448-10 383-10Q220-10 130.50 78Q41 166 41 342.50Q41 519 134.50 615Q228 711 386 711Q447 711 505.50 695.50Q564 680 574 680Q584 680 589 684.50Q594 689 600 700L611 700L619 483L601 483Q556 584 508.50 637.50Q461 691 400 691M226 743L332 891Q360 907 387 907Q434 907 457 867L531 743L522 733L380 801L234 733L226 743Z"  horiz-adv-x="690" vert-adv-y="1000"  />

      
      <glyph glyph-name="uni0109" unicode="&#x0109;" d="M290 468Q246 468 227 420Q208 372 208 261L208 209Q208 110 230 67Q252 24 311 24Q370 24 405 64Q440 104 450 155L468 153Q449 67 398 29Q346-10 255-10Q139-10 77 52.50Q15 115 15 235.50Q15 356 85.50 421Q156 486 282 486Q371 486 418 451.50Q465 417 465 365Q465 313 442.50 289Q420 265 380.50 265Q341 265 317 286Q293 307 293 348Q293 366 298 384L331 384Q338 404 338 420Q338 468 290 468M131 532L220 722Q250 738 279 738Q324 738 343 690L404 531L393 524L268 628L143 523L131 532Z"  horiz-adv-x="483" vert-adv-y="1000"  />

      
      <glyph glyph-name="uni010A" unicode="&#x010A;" d="M400 691Q245 691 245 392L245 313Q245 171 286 90.50Q327 10 407 10Q517 10 609 224L627 224L620 1L609 1Q603 12 598 16.50Q593 21 583.50 21Q574 21 511 5.50Q448-10 383-10Q220-10 130.50 78Q41 166 41 342.50Q41 519 134.50 615Q228 711 386 711Q447 711 505.50 695.50Q564 680 574 680Q584 680 589 684.50Q594 689 600 700L611 700L619 483L601 483Q556 584 508.50 637.50Q461 691 400 691M376 753Q376 753 349.50 753Q323 753 300.50 780Q278 807 278 847Q278 887 302.50 913Q327 939 377 939Q427 939 453 915.50Q479 892 479 848.50Q479 805 454 779Q429 753 376 753Z"  horiz-adv-x="690" vert-adv-y="1000"  />

      
      <glyph glyph-name="uni010B" unicode="&#x010B;" d="M290 468Q246 468 227 420Q208 372 208 261L208 209Q208 110 230 67Q252 24 311 24Q370 24 405 64Q440 104 450 155L468 153Q449 67 398 29Q346-10 255-10Q139-10 77 52.50Q15 115 15 235.50Q15 356 85.50 421Q156 486 282 486Q371 486 418 451.50Q465 417 465 365Q465 313 442.50 289Q420 265 380.50 265Q341 265 317 286Q293 307 293 348Q293 366 298 384L331 384Q338 404 338 420Q338 468 290 468M264 545Q264 545 237.50 545Q211 545 188.50 572Q166 599 166 639Q166 679 190.50 705Q215 731 265 731Q315 731 341 707.50Q367 684 367 640.50Q367 597 342 571Q317 545 264 545Z"  horiz-adv-x="483" vert-adv-y="1000"  />

      
      <glyph glyph-name="uni010C" unicode="&#x010C;" d="M400 691Q245 691 245 392L245 313Q245 171 286 90.50Q327 10 407 10Q517 10 609 224L627 224L620 1L609 1Q603 12 598 16.50Q593 21 583.50 21Q574 21 511 5.50Q448-10 383-10Q220-10 130.50 78Q41 166 41 342.50Q41 519 134.50 615Q228 711 386 711Q447 711 505.50 695.50Q564 680 574 680Q584 680 589 684.50Q594 689 600 700L611 700L619 483L601 483Q556 584 508.50 637.50Q461 691 400 691M534 909L428 761Q400 745 373 745Q326 745 303 785L229 909L238 919L380 851L526 919L534 909Z"  horiz-adv-x="690" vert-adv-y="1000"  />

      
      <glyph glyph-name="uni010D" unicode="&#x010D;" d="M290 468Q246 468 227 420Q208 372 208 261L208 209Q208 110 230 67Q252 24 311 24Q370 24 405 64Q440 104 450 155L468 153Q449 67 398 29Q346-10 255-10Q139-10 77 52.50Q15 115 15 235.50Q15 356 85.50 421Q156 486 282 486Q371 486 418 451.50Q465 417 465 365Q465 313 442.50 289Q420 265 380.50 265Q341 265 317 286Q293 307 293 348Q293 366 298 384L331 384Q338 404 338 420Q338 468 290 468M404 734L318 544Q291 528 264 528Q215 528 195 576L131 735L142 742L268 636L392 743L404 734Z"  horiz-adv-x="483" vert-adv-y="1000"  />

      
      <glyph glyph-name="uni010E" unicode="&#x010E;" d="M714 362Q714 156 598 75Q491 0 304 0L21 0L21 19L87 19L87 681L21 681L21 700L330 700Q522 700 618 621.50Q714 543 714 362M282 19L320 19Q421 19 464.50 90.50Q508 162 508 330L508 388Q508 613 422 659Q381 681 306 681L282 681L282 19M488 909L382 761Q354 745 327 745Q280 745 257 785L183 909L192 919L334 851L480 919L488 909Z"  horiz-adv-x="755" vert-adv-y="1000"  />

      
      <glyph glyph-name="uni010F" unicode="&#x010F;" d="M213 207Q213 102 224 67.50Q235 33 264.50 33Q294 33 315.50 59Q337 85 337 136L337 354Q337 397 320 427Q303 457 270 457Q237 457 225 413Q213 369 213 259L213 207M339 70Q305-10 201-10Q115-10 67.50 52Q20 114 20 237Q20 486 218 486Q306 486 334 437L334 732L273 732L273 750L523 750L523 18L572 18L572 0L350 0L339 70M570 520L558 533Q600 579 600 635Q600 669 555 708L577 730Q606 759 634 759Q662 759 678 738.50Q694 718 694 689Q694 608 570 520Z"  horiz-adv-x="664" vert-adv-y="1000"  />

      
      <glyph glyph-name="uni0110" unicode="&#x0110;" d="M19 359L19 385L95 385L95 681L29 681L29 700L338 700Q530 700 626 621.50Q722 543 722 362Q722 156 606 75Q499 0 312 0L29 0L29 19L95 19L95 359L19 359M290 19L328 19Q429 19 472.50 90.50Q516 162 516 330L516 388Q516 613 430 659Q389 681 314 681L290 681L290 385L419 385L419 359L290 359L290 19Z"  horiz-adv-x="763" vert-adv-y="1000"  />

      
      <glyph glyph-name="uni0111" unicode="&#x0111;" d="M350 0L339 70Q305-10 201-10Q115-10 67.50 52Q20 114 20 237Q20 486 218 486Q306 486 334 437L334 585L170 585L170 606L334 606L334 732L273 732L273 750L523 750L523 606L579 606L579 585L523 585L523 18L572 18L572 0L350 0M213 207Q213 102 224 67.50Q235 33 264.50 33Q294 33 315.50 59Q337 85 337 136L337 354Q337 397 320 427Q303 457 270 457Q237 457 225 413Q213 369 213 259L213 207Z"  horiz-adv-x="584" vert-adv-y="1000"  />

      
      <glyph glyph-name="uni0112" unicode="&#x0112;" d="M21 700L541 700L551 502L533 502Q491 603 445 640.50Q399 678 310 678L275 678L275 369L309 369Q356 369 388 404.50Q420 440 433 500L448 500L448 204L431 204Q413 279 382.50 311Q352 343 299 343L275 343L275 22L313 22Q405 22 469.50 77Q534 132 558 218L578 218L570 0L21 0L21 22L80 22L80 678L21 678L21 700M159 770L159 867L431 867L431 770L159 770Z"  horiz-adv-x="624" vert-adv-y="1000"  />

      
      <glyph glyph-name="uni0113" unicode="&#x0113;" d="M273-10Q144-10 79.50 56.50Q15 123 15 241.50Q15 360 87.50 423Q160 486 272 486Q499 486 490 258L208 258L208 219Q208 121 233 71Q258 21 320 21Q436 21 472 145L490 142Q471 70 421.50 30Q372-10 273-10M209 278L312 278L312 327Q312 408 302.50 437.50Q293 467 264.50 467Q236 467 222.50 435.50Q209 404 209 327L209 278M131 567L131 662L403 662L403 567L131 567Z"  horiz-adv-x="516" vert-adv-y="1000"  />

      
      <glyph glyph-name="uni0114" unicode="&#x0114;" d="M21 700L541 700L551 502L533 502Q491 603 445 640.50Q399 678 310 678L275 678L275 369L309 369Q356 369 388 404.50Q420 440 433 500L448 500L448 204L431 204Q413 279 382.50 311Q352 343 299 343L275 343L275 22L313 22Q405 22 469.50 77Q534 132 558 218L578 218L570 0L21 0L21 22L80 22L80 678L21 678L21 700M157 918L173 921Q187 881 215.50 867Q244 853 301.50 853Q359 853 386.50 866Q414 879 426 921L441 918Q423 746 299 746Q224 746 194 796Q166 841 157 918Z"  horiz-adv-x="624" vert-adv-y="1000"  />

      
      <glyph glyph-name="uni0115" unicode="&#x0115;" d="M273-10Q144-10 79.50 56.50Q15 123 15 241.50Q15 360 87.50 423Q160 486 272 486Q499 486 490 258L208 258L208 219Q208 121 233 71Q258 21 320 21Q436 21 472 145L490 142Q471 70 421.50 30Q372-10 273-10M209 278L312 278L312 327Q312 408 302.50 437.50Q293 467 264.50 467Q236 467 222.50 435.50Q209 404 209 327L209 278M125 721L141 724Q155 684 183.50 670Q212 656 269.50 656Q327 656 354.50 669Q382 682 394 724L409 721Q391 541 267 541Q191 541 162 594Q136 640 125 721Z"  horiz-adv-x="516" vert-adv-y="1000"  />

      
      <glyph glyph-name="uni0116" unicode="&#x0116;" d="M21 700L541 700L551 502L533 502Q491 603 445 640.50Q399 678 310 678L275 678L275 369L309 369Q356 369 388 404.50Q420 440 433 500L448 500L448 204L431 204Q413 279 382.50 311Q352 343 299 343L275 343L275 22L313 22Q405 22 469.50 77Q534 132 558 218L578 218L570 0L21 0L21 22L80 22L80 678L21 678L21 700M298 753Q298 753 271.50 753Q245 753 222.50 780Q200 807 200 847Q200 887 224.50 913Q249 939 299 939Q349 939 375 915.50Q401 892 401 848.50Q401 805 376 779Q351 753 298 753Z"  horiz-adv-x="624" vert-adv-y="1000"  />

      
      </font>
</defs>
</svg>
